/* XPM */
static char *b9511eca99744bddb1d8982b86967d5d1e7zCcs7ZeixnSXy[] = {
/* columns rows colors chars-per-pixel */
"64 64 190 2 ",
"   c None",
".  c #571B1A",
"X  c #5C1E1C",
"o  c #601F1C",
"O  c #5F201D",
"+  c #63211D",
"@  c #6B251D",
"#  c #71271E",
"$  c #73281F",
"%  c #79291F",
"&  c #5E2422",
"*  c #622422",
"=  c #6C2621",
"-  c #6E2923",
";  c #662B2A",
":  c #752A22",
">  c #7B2C22",
",  c #762E28",
"<  c #792F29",
"1  c #6D302F",
"2  c #7B3026",
"3  c #7C3229",
"4  c #75312F",
"5  c #6B3230",
"6  c #6C3836",
"7  c #743A37",
"8  c #7A433F",
"9  c #7B4B48",
"0  c #7D4640",
"q  c #812F24",
"w  c #843124",
"e  c #8B3427",
"r  c #82352A",
"t  c #8A372A",
"y  c #8B3A2D",
"u  c #86382D",
"i  c #943B2A",
"p  c #9C3E2B",
"a  c #863D33",
"s  c #8A3D31",
"d  c #A13F2C",
"f  c #9F422E",
"g  c #8D4235",
"h  c #8C463B",
"j  c #8D493E",
"k  c #9F4330",
"l  c #934A3E",
"z  c #90473A",
"x  c #A4422D",
"c  c #A8442F",
"v  c #A64531",
"b  c #A94631",
"n  c #A74936",
"m  c #AD4A34",
"M  c #A44D3B",
"N  c #AC4D3A",
"B  c #B14D34",
"V  c #AD513F",
"C  c #B45037",
"Z  c #B75239",
"A  c #BA553C",
"S  c #BD593F",
"D  c #8F4C41",
"F  c #934D42",
"G  c #8A544D",
"H  c #95564C",
"J  c #9B594D",
"K  c #96544A",
"L  c #885A57",
"P  c #945B53",
"I  c #9D5C52",
"U  c #AD5643",
"Y  c #AF5947",
"T  c #AC5B4B",
"R  c #A55D4D",
"E  c #B15A47",
"W  c #BF5B41",
"Q  c #B15D4B",
"!  c #B65742",
"~  c #98645B",
"^  c #B1614F",
"/  c #A1685E",
"(  c #A3655A",
")  c #B56553",
"_  c #B56B5A",
"`  c #BA705F",
"'  c #8C6561",
"]  c #9F6D65",
"[  c #956D68",
"{  c #A77266",
"}  c #A5746B",
"|  c #AA756C",
" . c #A7796F",
".. c #BC7A6B",
"X. c #BD7667",
"o. c #A17D79",
"O. c #A67C74",
"+. c #BA7E70",
"@. c #A36B61",
"#. c #C15D44",
"$. c #C36046",
"%. c #C6634A",
"&. c #C9674E",
"*. c #CA694F",
"=. c #CC6B51",
"-. c #CF7056",
";. c #D17157",
":. c #D4755B",
">. c #D5785E",
",. c #C17C6D",
"<. c #D67B62",
"1. c #D87B63",
"2. c #C17F70",
"3. c #A2827D",
"4. c #AE8278",
"5. c #B88276",
"6. c #C38C7E",
"7. c #C48171",
"8. c #AD8A83",
"9. c #AD8E8C",
"0. c #B38D86",
"q. c #AC928B",
"w. c #B5948C",
"e. c #B7948C",
"r. c #B39A94",
"t. c #B99D96",
"y. c #AF9893",
"u. c #B6A09A",
"i. c #BCA29C",
"p. c #BDA9A4",
"a. c #C38E81",
"s. c #C59285",
"d. c #C7978B",
"f. c #CA9D92",
"g. c #C2A39B",
"h. c #CDA297",
"j. c #D2A297",
"k. c #D5AA9E",
"l. c #C4ACA6",
"z. c #CBADA4",
"x. c #C5AFA9",
"c. c #C1A7A0",
"v. c #D5AEA3",
"b. c #C5B2AC",
"n. c #CAB3AC",
"m. c #D2B0A6",
"M. c #D9B2A6",
"N. c #D5B4AA",
"B. c #D9B7AD",
"V. c #D7B9AF",
"C. c #CAB7B0",
"Z. c #CCBCB5",
"A. c #CDBEB9",
"S. c #C6BAB4",
"D. c #D4BDB6",
"F. c #CDC2BC",
"G. c #D2C4BD",
"H. c #DFC2B8",
"J. c #DDC5BB",
"K. c #E1C6BE",
"L. c #CFC8C2",
"P. c #D4CCC5",
"I. c #DACEC7",
"U. c #D6CEC9",
"Y. c #D3C7C2",
"T. c #D6D1CB",
"R. c #DAD3CD",
"E. c #DDD6D1",
"W. c #DED9D4",
"Q. c #DFDCD8",
"!. c #E3CEC5",
"~. c #E3D4CC",
"^. c #E1D6D1",
"/. c #E2DAD5",
"(. c #EBDBD4",
"). c #E4DED9",
"_. c #EBDFDA",
"`. c #E8D7D0",
"'. c #E4E1DD",
"]. c #EAE2DD",
"[. c #F1E5DD",
"{. c #E6E5E1",
"}. c #ECE6E1",
"|. c #EDEAE4",
" X c #EEEDE8",
".X c #F1ECE5",
"XX c #F3EEE9",
"oX c #F5F1EA",
"OX c #F9F7EF",
"+X c #FAF8F1",
/* pixels */
"                                                                                                                                ",
"                                                                                                                                ",
"                                                                                                                                ",
"                                                                                                                                ",
"                                                                                                                                ",
"                                                                                  .Xh.U b b x                                   ",
"                                                                        (..XoX.X|.].~.s.U b x x x x d p                         ",
"                                                                  #.A S 7.K.].]._.)._.^.z.) c x i e t q w >                     ",
"                                                            *.%.#.Z m c b E s.!.'.]././.~.n.( y w w q q > > :                   ",
"                                                        :.=.%.S B c x f x p b ` N.~./.R.R.U.Z.{ t q q q q > =                   ",
"                                                      :.-.%.A B x x n m x d d x U s.Y.P.P.R.R.G.| t > q > > * .                 ",
"                                                  7.:.=.$.A B x x E j.v._ v d x i s | Z.U.R.T.R.Y.| r > > : O .                 ",
"                                                >.:.=.$.A B f x x ..~. X~.s.U t t e y ( b.R.R.R.R.G.{ q > = X X O               ",
"                                            1.>.>.=.#.A B v M 7.,.Y a.W.{.).g.K r w q w J l.R.R.R.E.A.] : * . X X               ",
"                                          1.>.:.&.#.A B v f 5.[.[.v.m.).E.W.W.x.I e w w w H x.R.E.E.E.n.G X X . &               ",
"                                        1.1.:.&.#.A B c m B 5.W.oX|.|.'.x.t.L.T.i.g w > > q H b.E.E.E.E.t.6 . X X               ",
"                                      1.<.:.*.W A B x T h.7.U d.'.'.'.Q.4.z  .r./ t w 2 q > > P C.E.^.^.E.o.; . X               ",
"                                    <.<.:.*.#.A m x V H.oX[.H.K.'.E.Q.Q.G.{ g t e w > > > > > 2 ] G./.E.E.Y.L X &               ",
"                                  1.<.:.*.W A m m x V m.|.oXoX|.R.0.i.T.T.e.g w w > > > > > > % < O.R.^.E.).p.7 O               ",
"                                  1.:.*.$.A C v ) 7.U ) J.{.|.|.F.R l 3.4.l w w 2 : > > > > > : > 3 r.E.).).Q.o.;               ",
"                                >.>.=.$.A m c ) H..XM.d./.'.'.'.W.g.l g g q > > > > > > > : % $ : # 0 b.)./.).G.L               ",
"                              1.>.=.^ A C x c 5.[.OXoX.X|.T.p.R.W.G.@.e w > q > w > > > : % % $ # @ * ' U.).).).i.              ",
"                            1.>.;.$.S B b m m E z.|.oX.X).5.l 3.F.5.g 2 w > w > > > > > % % # # # o . ; 9.).).).).              ",
"                            >.;.%.S C v V j.k.Q 6.W.].|.'.c.z g P g 2 > 2 q > > > > > % % # # # @ X . . 9 Z.).].XX              ",
"                          >.;.%.S Z c c 6.oXoXK.~.|.E.Q.'.W.w.t w w w > > w > > > > $ > # # @ # & X X X & o.E.}.XX              ",
"                          ;.&.W Z c f c 6.|.OXoXoX~.t.p.R.R.w.g w > 2 > > > > > $ > $ $ # # # + X . X X X 8 C..XXX              ",
"                        ;.*.#.Z B v E V Y V..XoX Xm.l J t.e.z w w > > 2 > > > % > $ # # # # @ O X . X o o + o.].XX              ",
"                        =.#.B m x T B.v.) v.'.].].E.| y z g w w > > > > > % % % $ $ # # @ @ + . X X o o + o 0 A.|.              ",
"                      *.%.A B c x s.oXoXK.[.'.R.'.'.F.K w w w > % > > > > % : : # # # @ @ * X X X X O + o + = 0.}.              ",
"                      $.A B b p v 5.].OXoX XG.0.F.Q.n.K w w 2 % > > > > % % : # # # # @ @ + X X X o O O + + = G                 ",
"                    $.#.B c c U ^ T N..X X].4.z 3.i./ e q > % > > > > $ $ : # # # @ @ @ + X X X o X + + + = 1 ,                 ",
"                    #.Z m d M v.J.X.m.'.].{.F.l g h r 3 q % % > > > $ : % # # # @ @ @ @ o . O O + O O + * = : :                 ",
"                    A m x f ` ].oX`.].).E.'.W.0.t w w 2 : : > > $ % > $ # # # @ @ @ + + O O O O + O + + = 1 : :                 ",
"                  A B c p c T J.oXXX|.b.u.T.R.e.y w > > % > > > > $ $ # # # # @ @ @ + O . O O O + + + @ = , , ,                 ",
"                  B b p n ,.E a.'.|.).| F y.i.K q > : > > > : > $ $ $ # # @ @ @ + + O . O O O O + + @ @ : , ,                   ",
"                  B c d X.(.j.d.).'.{.g.g j D w > > : > > > % : $ $ $ # @ @ @ @ + O O O O O O + + + @ = , , 2                   ",
"                n c x d s..X}.].'.R.'.T.{ r w > : > > > > % % % # # # @ @ @ @ @ O O O . O O + + @ = @ : , < 3                   ",
"                m c x d ) R. X|.G.r.L.R.4.r w > > > > % $ : : # # # @ @ @ @ @ O O O O O + + + + + @ - , < 3                     ",
"                X.c x x n d.'.{.t.D q.i.l 2 : > > > % $ % : # : # @ @ @ @ @ O O O O O + + + + @ @ = , < < 3                     ",
"                B.V d d x R Z.'.D.J h j w > > > > $ > : % : @ $ @ @ @ @ + O O O O O O + + + + @ @ - < 3 3                       ",
"                [.,.x p p x O.U.E.0.u > > : > > > % $ $ $ $ @ @ @ @ @ @ O o O O O o + + @ + @ @ = , 3 3 3                       ",
"                .XM.C d x i h y.T.w.s % > : > > : % $ $ # @ # @ @ @ + O O O . O O + + + O @ + @ , 3 3 r r                       ",
"              oX.X`...c x r q H q.P > > > > > > % $ # # @ @ @ + @ @ + O O . O o o + @ + + @ @ - 2 3 3 r                         ",
"              oX.X|.m.Z p w q r g 3 2 : : % % : # # # # @ # @ @ + + O O O O O o + + + @ @ @ : 2 2 r r 3                         ",
"              oX.X].`.5.t w 2 > q q > $ : % : # $ # # @ @ @ @ @ + O . O O O o + + + + @ @ @ > 2 3 r r                           ",
"              [.].].].n.F q > > > > : $ # : $ $ # # @ @ @ @ + + O O O O O O + + + @ @ @ @ $ 3 3 r r                             ",
"              f._.]._.R.4.r > > > : $ : $ # $ # @ @ @ @ @ + + X . O O O O O + + @ + @ @ - 3 3 w r r                             ",
"              E B.].R.Y.Z.~ > : > $ > : $ # # # @ @ @ + @ + O . O . O O + + @ + @ @ @ # 2 3 3 8 r                               ",
"              x X.~.T.P.U.c.h > > $ $ $ $ # # @ @ @ + + + X X X O O O + + + + + + @ $ 2 3 3 r r                                 ",
"              x N f.E.U.U.U.w.3 % : $ $ # # @ # @ @ @ + X X X X O O O + + + @ @ @ # , 3 3 r r                                   ",
"              v v R x.U.U.T.Y.} 2 $ # # # # @ @ @ + + O X X O X O + + + @ + + @ - 3 3 3 r r r                                   ",
"              x x i ] F.R.T.T.A.~ $ # @ @ @ @ + + O O . X O X X O + + + = @ @ - , 3 3 r r r                                     ",
"              b x e r 0.P.R.R.R.C.P @ @ @ = = * O X X X X O O + + + + @ @ @ - , 3 3 r r r                                       ",
"              b f > : h i.R.T.R.R.x.G = o + o X . X X . O O O + + + * @ + - 2 3 3 3 3 r                                         ",
"                i > % $ G x.R.R.R.E.b.G = o X . X X X O O + O + + + @ = , , 3 3 r r r                                           ",
"                p % % $ $ ~ Z.R.E.E.E.b.L + X . X X X O O O + + @ = = : , 3 3 r 3                                               ",
"                w : $ $ # : ~ F.R.E.E.E.A.' & X X O O o o + o = = = , < , 3 3 3                                                 ",
"                > $ $ # # @ : [ F.E.E.E.E.L.3.5 X O O + + + + = , , < 4 3 3 3                                                   ",
"                  : # # @ + O & ' S.W.W.W.W.R.u.9 * o + + = = - , , : > 2                                                       ",
"                  # @ + O O O . X L S.E./././.W.A.[ 5 * = - 1 , , , ,                                                           ",
"                    X X . X X . . X 9 p.E././.).{./.l.L 4 - : : ,                                                               ",
"                        . . . O . X X 7 9.R.}. XXXXXXX^.0.4                                                                     ",
"                              O + + & * 1 o./.XXXXoXoX                                                                          ",
"                                                                                                                                "
};
