/* XPM */
static char *f4a61ebb53b54f24b49f7e666b0d7583SyTvtplAsr1GPeb4[] = {
/* columns rows colors chars-per-pixel */
"64 64 225 2 ",
"   c None",
".  c #000000",
"X  c #060808",
"o  c #160809",
"O  c #021518",
"+  c #1B181A",
"@  c #3B0000",
"#  c #211D1E",
"$  c #290C0B",
"%  c #001F20",
"&  c #231E21",
"*  c #002525",
"=  c #162426",
"-  c #003334",
";  c #003A3B",
":  c #003738",
">  c #143435",
",  c #262223",
"<  c #292526",
"1  c #2E2B2C",
"2  c #2B2729",
"3  c #362B2D",
"4  c #322F31",
"5  c #2D3636",
"6  c #353334",
"7  c #3C3435",
"8  c #3C3A3B",
"9  c #363839",
"0  c #4B0104",
"q  c #570002",
"w  c #680000",
"e  c #780000",
"r  c #761D1F",
"t  c #4C2628",
"y  c #5B2B2C",
"u  c #47383A",
"i  c #593435",
"p  c #452F31",
"a  c #6D2829",
"s  c #7D2B2C",
"d  c #712627",
"f  c #703437",
"g  c #413F41",
"h  c #004343",
"j  c #3B4B4B",
"k  c #484648",
"l  c #534A4B",
"z  c #595657",
"x  c #565152",
"c  c #67595A",
"v  c #735151",
"b  c #745F61",
"n  c #576768",
"m  c #646364",
"M  c #6A6969",
"N  c #786768",
"B  c #716F70",
"V  c #796F70",
"C  c #757374",
"Z  c #7A797A",
"A  c #687577",
"S  c #8B0000",
"D  c #870000",
"F  c #930000",
"G  c #9C0000",
"H  c #97070C",
"J  c #A30000",
"K  c #AB0000",
"L  c #BA0000",
"P  c #AE0C15",
"I  c #9B1C21",
"U  c #882629",
"Y  c #942A2C",
"T  c #99292C",
"R  c #923438",
"E  c #BD2529",
"W  c #B72428",
"Q  c #A83132",
"!  c #B83536",
"~  c #A9282B",
"^  c #C30000",
"/  c #CC0106",
"(  c #DB0000",
")  c #D30003",
"_  c #C30913",
"`  c #D6161C",
"'  c #CE1016",
"]  c #E40001",
"[  c #EA0000",
"{  c #F40000",
"}  c #EA0B14",
"|  c #F00E18",
" . c #F1151C",
".. c #E6131A",
"X. c #D11D23",
"o. c #E91D23",
"O. c #CB2428",
"+. c #DA2A2D",
"@. c #D7262A",
"#. c #C53739",
"$. c #DB373A",
"%. c #D52F32",
"&. c #EA2327",
"*. c #E72529",
"=. c #EA2529",
"-. c #EA292D",
";. c #E5282C",
":. c #F1262B",
">. c #F2292D",
",. c #F02226",
"<. c #EC2E31",
"1. c #E62D31",
"2. c #F32E31",
"3. c #EC3639",
"4. c #F23134",
"5. c #F63538",
"6. c #965355",
"7. c #894F51",
"8. c #B65556",
"9. c #AF4F52",
"0. c #966466",
"q. c #8D7A7B",
"w. c #877778",
"e. c #8F7274",
"r. c #A87475",
"t. c #B47577",
"y. c #B2696A",
"u. c #D74446",
"i. c #D24D50",
"p. c #E64446",
"a. c #F24547",
"s. c #ED5658",
"d. c #F35C5E",
"f. c #EB4C50",
"g. c #C4686B",
"h. c #EF6465",
"j. c #ED7375",
"k. c #F87474",
"l. c #817E80",
"z. c #F97E80",
"x. c #758485",
"c. c #858384",
"v. c #8C8B8C",
"b. c #8E8686",
"n. c #9C8586",
"m. c #9C8A8C",
"M. c #948F91",
"N. c #939293",
"B. c #9C9B9C",
"V. c #9A9596",
"C. c #A68587",
"Z. c #BA8C8E",
"A. c #A88F91",
"S. c #AC9395",
"D. c #A39A9B",
"F. c #AB9E9E",
"G. c #B39B9D",
"H. c #BB9D9E",
"J. c #B39696",
"K. c #B78E90",
"L. c #9DA09F",
"P. c #BB9EA0",
"I. c #AE9FA1",
"U. c #A5A4A5",
"Y. c #A8A9AA",
"T. c #BDA1A2",
"R. c #B2A8A8",
"E. c #AFAEB0",
"W. c #B3B3B3",
"Q. c #BBBBBC",
"!. c #C5999B",
"~. c #F78A8C",
"^. c #F79899",
"/. c #EE8583",
"(. c #C3A9AA",
"). c #CDABAD",
"_. c #C4A4A5",
"`. c #CDAFB2",
"'. c #CAB6B7",
"]. c #D4B2B4",
"[. c #D4BABA",
"{. c #DDBABB",
"}. c #D9B6B7",
"|. c #E3BDBF",
" X c #ECACAC",
".X c #CEBFC0",
"XX c #E3BFC1",
"oX c #BFC6C7",
"OX c #C3C4C4",
"+X c #CCCBCD",
"@X c #C6C8C8",
"#X c #CED2D3",
"$X c #D4D4D5",
"%X c #DBDBDC",
"&X c #D5D8DA",
"*X c #CECFD0",
"=X c #E6C2C3",
"-X c #EDC5C6",
";X c #EEC6C8",
":X c #EDCACB",
">X c #E6C7CB",
",X c #F3CBCC",
"<X c #F3C9CA",
"1X c #F9CFD0",
"2X c #F1CFD1",
"3X c #F4D3D5",
"4X c #FBD1D3",
"5X c #F8D9DC",
"6X c #EFD0D3",
"7X c #F8DDE0",
"8X c #E6DEE1",
"9X c #DCE2E2",
"0X c #E4E4E6",
"qX c #E6E5E9",
"wX c #E8E6EA",
"eX c #EAEAEC",
"rX c #E5EAEA",
"tX c #FFE5EA",
"yX c #F9E7E9",
"uX c #ECEFF2",
"iX c #F0EFF3",
"pX c #EDF3F5",
"aX c #F3F3F4",
"sX c #FEFEFE",
"dX c #F5F8F9",
/* pixels */
"                                                        z 8 z k                                                                 ",
"                                                    U R 9Xz $XJ.J u                                                             ",
"                                                  Y | i.pXc 9X(. .$.i                                                           ",
"                                                s ;...8.uXl 9XT.f.~.+.7                                                         ",
"                                              > %.4.[ y.eXl 9XT.] ^.k.P                                                         ",
"                                              a *.<.[ t.iXu 0X'.( ~.^.u.3                                                       ",
"                                        X C x.H >.1.[ t.aXu wX'.( h.^.h.r j . .                                                 ",
"                                    . N.9XsX&XK 2.3.[ Z.dXg aX'.( -.~.z.S @X%Xb.. .                                             ",
"                                o x &XsXdXsX+XL $.$.[ H.rX. 9X.X] 4.f.~.F #XsXsX0XN.. g                                         ",
"                                c aXsXeXaXsX+XS U S F 0.W.@XE.b.K K Q s.S &XsXeXdXsX+X+ 6                                       ",
"                              . wXsX0XiXsXsX&X0 i C.r.7.B.@XV.R e.A.6.P S 9XsXdX0XwXsX0X< 8                                     ",
"                            . W.sXwXwXsXsXsX0X. c 4X,XS.}.|.=XF.|.3Xr.J v aXsXsXaX0X0XsX&X.                                     ",
"                            1 eXaXqXaXsXsXsXaXj c 3X-X[.;X;X;X{.XX<Xy.e N.sXsXsXsXuXqXeXsXD..                                   ",
"                            q ,XpXqXsXsXsXsXsXV.i 3X,X;X<X].}.1X-X<Xy.o &XsXsXsXsXdXqX0XsXqX.                                   ",
"                        9 B S /.eXeXsXsXsXsXsX%XX 2X5X-X-X-XG.-X<X-X0 v.sXsXsXsXsXsXaX0XaXsXV                                   ",
"                        H.=Xs [ >XpXsXsXsXsXsXsXB.C.5X7XH.S.n.-X1XJ.z aXsXsXsXsXsXsXdXqXpXyXT h                                 ",
"                      n.3X,Xc ) j.pXsXsXsXsXsXsX%XM G.[.XX).{.{.G.M 0XsXsXsXsXsXsXsXsXeXdX XJ O 7                               ",
"                    c ,X5X,Xm.F {  X  sXsXsXsXsX0XU.N.G.V.F.D.b.V.W.aXsXsXsXsXsXsXsXsXdX0Xs.F w.N .                             ",
"                    ).tX3X<XXX5 X.}     aXsXsXsXsXB.N.P.m.}.`.V 0XW.aXsXsXsXsXsXsXsXsXsX X[ q '.<XN X                           ",
"                  e.5XyX;X-X<XP.@ $.a.  A sXsXsXsX&XB.%XL.'.B.OX*XE.sXsXsXsXsXsXsXsXsXyX3._ k :X5X2XN                           ",
"                  (.tX2X-X,X,X4Xn.. T i k aXsXsXdXsX$XU.Y.9XQ.c.E.dXsXsXsXsXeX%XdXsXsX^.[ 0 S.tXyXtX>Xl                         ",
"                x :XtX;X].S.).C.x j     . 9XsXdXsXsXsXeX+XE.Q.0XsXsXsXsXsXsXdX$XC M.F.P e M :X3X6X7XtX`.=                       ",
"                V ,X,X-X,XG..             E.sXsXsXsXdXsXsXsXsXsXsXsXsXsXsXdXsXaX9       . C.,X<X,X,X3X5XN                       ",
"                  (.,X-X-X1Xq.            M aXsXsXsXsXsXsXsXdXsXsXsXsXdXsXsXsXC           X N H.(.].>X1X_..                     ",
"                  k =X<X-X1X}.O             OXsXdXsXsXsXsXsXsXsXsXsXsXsXdXsXE.                O T.}.-X1XH.                      ",
"                    w.,X;X,X-Xc             p eXsXsXsXsXsXsXdXsXsXsXsXsXsX$X                  S.5X<X;X,Xm                       ",
"                    . _.,X;X4Xn.            * j oXrXpXsXsXsXsXsXsXsXiX%XY.X h               5 XX<X-X1XT.                        ",
"                      6 |.=XS.N           1 Y _ H 0 x n x.x.x.x.A n 8 0 G ` U ;             V ,X-X<X-Xl                         ",
"                        m x . . l     : U @.:.2.3.;.' L J G G J K ^ X.3.<.d.3.K -           A.4X,X1Xq.                          ",
"                        & . p & o   > E >.,.-.*.*.-.<.2.4.4.4.2.4.>.-.<.] j.~.a./ p         l T.XXS.                            ",
"                          6 . 1 x $ O.>.&.<.-.*.*.*.*.*.;.&.*.*.*.*.&.-.-.<.~.^.d.( d h   8 . . = O                             ",
"                          O w.|.:XH.^ >.-.*.*.-.&.*.E +.>.=.=.=.*.*.*.-.-.o.p./.^.j.3.Y * o 3 < 1                               ",
"                            |.1X-X1XG.^ 2.&.=.-.*.&.+.U W @.*.;.*.=.-.&.&.<.o.o.s.j.h.( N x . <                                 ",
"                            {.,X-X|.=XC.( <.=.*.-.2.>.I * p y d +.>.*.&.-.&.-.-...| ( 6.-XXXe.4                                 ",
"                          O }.<X,X_.7..XE :.;.*.>.+.U -         a E *.-.&.o.;.<.<.^ r.XX<X<X1Xq.                                ",
"                          . ).,X<X}.K K.n.( >.-.E p               h a O.<.3.p.<./ F.6X;X;X;X1Xq..                               ",
"                        u G ).,X|.[.#.] 9.s.i.s :                     - f i.2.{ g.P.0.XX<X;X:Xt.w                               ",
"                        Y ) T.[.).[.W 5.d.8.z                             ; U E l.' u.XX|.;X:Xg.+.n                             ",
"                      ; E &.7.M.(._.!.~ c                                     ; t ) ! ].].{.[.8.3.7.                            ",
"                      ; O.>.} Q 0.c l.M                                           5 K.`.].}.`.#. .7.                            ",
"                      : O.,.-.:.F %                                                 G.A.J.I.C.` >.I                             ",
"                      : O.:.*.*.U                                                       w ! %.*.>.Q                             ",
"                      - %.2.<.<.a                                                       i =.4.3.5.J ;                           ",
"                      : K ] ( ^ p                                                       ; W ] ( K B z                           ",
"                      < B q.w.Z 4                                                         9 w.b.@XdXm                           ",
"                      . &XsXsXwX.                                                         < eXsXsXsXZ                           ",
"                      . &XsXsX$X                                                            W.sXsXsXc.                          ",
"                      . %XsXsXU.                                                            m sXsXsXv.                          ",
"                      . %XsXsXC                                                             . 0XsXsXN.                          ",
"                        $XsX0X.                                                               oXsXsXN.                          ",
"                        $XsXOX                                                                B.sXsXN.                          ",
"                        *XsXY.                                                                b.sXsXN.                          ",
"                        +XsXB.                                                                l.sXsXN.                          ",
"                        +XsXN.                                                                Z sXsXc.                          ",
"                        W.aXB                                                       wXwXwX    l.sXsXC                           ",
"                      < # 1 +                                                     wXsXeXdXsX%Xk B.M .                           ",
"                  4 1 < # # , 8                                                       wXqXaXE.. . . . c.&XuXiXiX                ",
"          7 & , & , & & , , # 6                                                     wXsXiXaXl + 9 2 2 . . m U.@XwXqX            ",
"            < & < , & 1 < , , 9                                                       wXqX  1 < & < # 1 1 . . .   eXsX          ",
"                9 6                                                                           9 6   8 4 1 7 k     wXaX          ",
"                                                                                                                                ",
"                                                                                                                                ",
"                                                                                                                                ",
"                                                                                                                                "
};
