/* XPM */
static char *result[] = {
/* columns rows colors chars-per-pixel */
"64 64 250 2 ",
"   c #050406",
".  c #131901",
"X  c #0F2204",
"o  c #1B2704",
"O  c #262E0B",
"+  c #263900",
"@  c #121B2D",
"#  c #2D1C2D",
"$  c #1A2B2A",
"%  c #1A2439",
"&  c #2F2F30",
"*  c #4B2F24",
"=  c #2E4213",
"-  c #3D7404",
";  c #2E4936",
":  c #454F04",
">  c #6A5011",
",  c #457504",
"<  c #4C7504",
"1  c #457C04",
"2  c #4D7A04",
"3  c #4B7609",
"4  c #517605",
"5  c #527B05",
"6  c #547B09",
"7  c #587A08",
"8  c #4C7310",
"9  c #7C7119",
"0  c #616022",
"q  c #192548",
"w  c #123053",
"e  c #273356",
"r  c #043F62",
"t  c #003277",
"y  c #01347C",
"u  c #00397F",
"i  c #2B3B63",
"p  c #334D4B",
"a  c #3B7C55",
"s  c #0E4F75",
"d  c #364E70",
"f  c #33647E",
"g  c #536750",
"h  c #4B6C73",
"j  c #5D6870",
"k  c #806F17",
"l  c #807C58",
"z  c #3F8201",
"x  c #458603",
"c  c #4C8404",
"v  c #4B8B02",
"b  c #548404",
"n  c #5A8605",
"m  c #548A04",
"M  c #5B8A04",
"N  c #558709",
"B  c #5B8509",
"V  c #5C8A09",
"C  c #4A9301",
"Z  c #4E9902",
"A  c #539403",
"S  c #559A03",
"D  c #5A9D04",
"F  c #589609",
"G  c #548716",
"H  c #5B8E14",
"J  c #559018",
"K  c #628A08",
"L  c #6C8F17",
"P  c #699A19",
"I  c #76971B",
"U  c #5AA403",
"Y  c #5CA517",
"T  c #65A607",
"R  c #69A518",
"E  c #76A115",
"W  c #628E21",
"Q  c #689E21",
"!  c #779A24",
"~  c #7AA423",
"^  c #649463",
"/  c #86941C",
"(  c #91956D",
")  c #97A267",
"_  c #8EB16F",
"`  c #99C470",
"'  c #A7CA76",
"]  c #002E82",
"[  c #013681",
"{  c #013B84",
"}  c #00358B",
"|  c #013D8B",
" . c #003D92",
".. c #014389",
"X. c #01438C",
"o. c #145E8F",
"O. c #014494",
"+. c #014A95",
"@. c #014699",
"#. c #004C9D",
"$. c #01519E",
"%. c #186598",
"&. c #2A698A",
"*. c #356A87",
"=. c #37728E",
"-. c #2C7393",
";. c #2A7799",
":. c #377997",
">. c #014EA1",
",. c #0048A5",
"<. c #0153A4",
"1. c #0258A7",
"2. c #0056A9",
"3. c #005BAC",
"4. c #0054B2",
"5. c #005DB2",
"6. c #005DBB",
"7. c #1268A8",
"8. c #0667B0",
"9. c #0161B5",
"0. c #086CB5",
"q. c #0165BA",
"w. c #006ABD",
"e. c #0576BD",
"r. c #337DA1",
"t. c #51748B",
"y. c #477C99",
"u. c #477FA0",
"i. c #0065C1",
"p. c #016DC3",
"a. c #016EC9",
"s. c #0174C3",
"d. c #017BC5",
"f. c #0C7DC6",
"g. c #0074CB",
"h. c #017BCD",
"j. c #0078D3",
"k. c #017CD3",
"l. c #3B839C",
"z. c #2F939A",
"x. c #0D8AB9",
"c. c #3B89A7",
"v. c #3199B0",
"b. c #39A5AD",
"n. c #46839D",
"m. c #55869B",
"M. c #4C9593",
"N. c #758A87",
"B. c #4EA195",
"V. c #65B095",
"C. c #4986A7",
"Z. c #568AA9",
"A. c #4998A7",
"S. c #5692B3",
"D. c #6997AB",
"F. c #6996B1",
"G. c #4BA5AB",
"H. c #4AA7B8",
"J. c #79A4B8",
"K. c #71B2B2",
"L. c #0281C6",
"P. c #0283CC",
"I. c #0886C8",
"U. c #1889C7",
"Y. c #0294CD",
"T. c #0799CD",
"R. c #199CCD",
"E. c #0183D5",
"W. c #018BD5",
"Q. c #0B89D2",
"!. c #0184DA",
"~. c #018BDC",
"^. c #0194D4",
"/. c #069BD7",
"(. c #0194DB",
"). c #179CD6",
"_. c #278EC9",
"`. c #2898CC",
"'. c #3799CA",
"]. c #2B9AD8",
"[. c #0FA2DB",
"{. c #14A1D8",
"}. c #2EA0CE",
"|. c #33A2D4",
" X c #018DE1",
".X c #0293E4",
"XX c #0698E7",
"oX c #029CE4",
"OX c #039CEA",
"+X c #149BE6",
"@X c #02A2EC",
"#X c #0BA4E9",
"$X c #18A7EA",
"%X c #0AA8F1",
"&X c #16ADF2",
"*X c #0EB1F4",
"=X c #18B1F5",
"-X c #27ABEA",
";X c #36A9E6",
":X c #26B0EE",
">X c #36B2ED",
",X c #24B2F5",
"<X c #2BB3F3",
"1X c #37B7F6",
"2X c #3ABAFA",
"3X c #4F9CCB",
"4X c #50A7D0",
"5X c #6DADCD",
"6X c #46AAE4",
"7X c #53ABE3",
"8X c #48B5EA",
"9X c #56B7EA",
"0X c #48BCF7",
"qX c #42BCFA",
"wX c #56BCF3",
"eX c #66B8E6",
"rX c #6BBDEF",
"tX c #59C1EC",
"yX c #4EC0FB",
"uX c #5AC4F7",
"iX c #53C3FB",
"pX c #6BC2EA",
"aX c #7AC6E4",
"sX c #67C7F5",
"dX c #6CCCFB",
"fX c #74CBF6",
"gX c #6CD0FC",
"hX c #73D1FB",
"jX c #7BD5F9",
"kX c #7BD4FC",
"lX c #94A298",
"zX c #87AEAD",
"xX c #94C597",
"cX c #A4CC96",
"vX c #8BB3CC",
"bX c #9AC8DD",
"nX c #86C9E9",
"mX c #8DCFF1",
"MX c #88D7F8",
"NX c #83DAFD",
"BX c #95D9F6",
"VX c #AED8F3",
"CX c #8CE0FE",
"ZX c #98E3FE",
"AX c #ABE6FD",
"SX c #B9E6FC",
"DX c #C3DBC9",
"FX c #C5EAFC",
"GX c #CEF1FD",
"HX c #D7F7FE",
/* pixels */
"w.q.9.9.8.8.3.3.3.1.3.1.1.1.1.1.<.<.$.$.+.+.+.+.+.X.X.X.........s [ u u u [ [ u y y y t t t t t t t t t y t t t t t t t y t t t ",
"w.w.w.9.9.9.8.3.3.8.1.1.1.3.1.1.1.<.<.#.$.+.+.+.+.X...+...........{ { { s [ u u u y y y y y y y y y y y y y t y t t t y y y y ] ",
"w.0.w.q.9.q.9.9.8.3.3.3.3.3.1.1.1.1.<.<.$.$.$.+.+.+.+.+.+.X.X.X.X...| | ..{ [ { { [ { y y u y y y y y y y y y y t t y y y ] ] y ",
"e.w.w.w.w.q.9.9.8.9.9.8.9.3.3.1.2.1.1.1.1.$.$.$.$.+.+.+.+.+.+.X.X.X.........{ ..{ { { { u u u u u u u y y [ [ y y [ [ y [ ] ] h ",
"w.w.w.w.w.w.w.w.w.q.9.9.9.9.9.3.3.1.1.1.1.<.<.<.$.$.+.$.+.+.+.+.+.O.X.X.X.X.X.X.| | | { | { [ [ { u [ [ { [ { u [ [ { [ [ [ ] h ",
"s.s.w.w.w.s.p.w.w.w.w.q.9.9.9.9.3.5.3.3.1.1.1.<.$.$.$.$.$.$.#.+.+.+.+.O.O.X.O.X. .X.| | | | | | { | { [ { { { [ [ { [ [ [ | ] *.",
"h.s.g.g.s.g.w.w.p.w.w.w.w.9.9.9.9.9.9.5.1.3.2.1.1.1.$.<.$.$.$.$.#.#.#.O.+.O.O.O.X.O.X.| | | | | | | { | | | | [ { | { } | | } *.",
"h.g.g.g.g.s.g.s.p.s.p.p.w.w.w.w.q.9.9.5.5.5.5.3.3.3.3.1.1.<.<.<.$.$.#.#.#.+.+.+.O.+.O.O.O. .X. ...| | | | | | | | | | { | } ] f ",
"k.h.j.h.h.g.g.g.g.g.p.p.p.w.w.w.q.w.q.q.q.6.5.5.5.5.5.1.1.2.2.<.<.>.>.>.>.#.#.#.#.+.+.O.O.O. . . .| |  .| | | | | | | | | X.} *.",
"k.k.j.j.j.g.j.j.g.g.g.g.g.p.g.p.p.i.q.q.q.q.q.q.5.5.5.5.3.2.2.2.1.1.<.<.>.,.#.#.#.@.#.@.+.@.O.O.O.@. . . .O.| |  .| | | X.| } f ",
"E.!.k.k.k.k.k.j.h.h.g.g.g.g.g.p.p.p.p.p.w.w.0.q.q.6.9.5.5.5.3.2.2.2.1.<.<.<.>.>.>.@.@.@.#.+.@.@.O.@. .@.@. . . . .|  .X.| |  .&.",
"!.!.!.E.!.k.k.k.j.k.k.j.h.g.g.g.g.a.p.a.a.i.i.q.q.q.6.q.9.5.5.5.5.2.1.2.<.<.<.,.>.>.>.<.,.#.@.@.@.@.@.O.O.@.@. .O. .O. . .O.} *.",
"~. X!.!.!.k.!.k.!.k.k.k.j.j.h.h.g.g.g.a.a.a.a.p.p.i.q.q.q.q.6.5.5.5.3.5.2.2.<.<.<.>.>.>.#.#.@.@.@.O.@.@.@.O.@.O.@.@.O.@.O.O. .*.",
"rX6X.X X X X X!.!.!.!.k.k.k.k.j.j.j.g.g.a.a.a.a.p.p.p.w.q.q.q.q.6.5.3.3.2.4.=.%.<.<.>.#.$.,.#.#.#.@.@.@.@.O.@.@.@.O.O.O.O.O. .*.",
"SXSXmX+X X X X X X!.!.!.!.k.E.k.j.k.j.j.g.a.a.a.a.a.p.p.w.q.q.0.w.q.9.9.4.4.=.%.,.<.>.,.#.>.>.#.#.#.#.@.@.#.#.@.O.@.O.O.O.#.@.=.",
"SXFXGXBX.X X X X X X X X X!. Xk.!.k.j.j.j.g.g.a.a.a.p.a.p.i.i.6.q.p.w.w.9.6.:.7.4.<.<.<.>.>.>.#.>.#.#.#.#.#.#.@.@.@.@.#.+.#. .=.",
"GXGXGXGXfX9X+X.X X.X X X Xk. Xj.j. Xj.j.j.j.j.j.g.a.a.a.a.i.i.w.q.i.9.q.9.6.n.7.5.1.2.<.<.<.>.>.>.#.>.#.@.>.>.>.@.#.#.#.#.#.,.=.",
"GXHXHXHXHXFXrXOX XOX.X X X.X Xj. Xj..Xj.k.k.j.j.g.g.a.a.a.a.i.w.q.9.6.9.9.9.:.7.5.3.3.3.<.<.>.<.>.>.>.>.#.>.>.#.>.>.#.>.#.#.,.=.",
"VXFXHXHXGXHXAX+X X X.X.X X X X X Xj.j.j.k.j.j.j.j.g.g.a.a.a.i.w.i.q.9.q.9.6.:.7.2.2.5.2.2.2.<.<.<.>.>.>.>.#.>.>.#.#.>.#.#.$.,.=.",
"fXVXFXHXHXHXHXVXmX,XOX.XOX X X X X X X X X Xk.j.j.g.j.g.a.a.p.w.p.q.q.9.9.6.:.7.4.5.2.3.2.2.2.2.<.<.<.>.>.<.>.>.<.<.<.>.<.<.,.:.",
"0XwXmXSXHXHXHXHXGXnX X.X XXX X X X X Xj.k. Xj.k.j.j.j.g.g.g.p.p.w.w.q.9.q.6.:.7.6.3.5.2.3.1.2.2.<.<.<.<.<.>.<.<.<.<.<.<.<.<.<.y.",
"qXqX,XqXMXFXHXHXHXFXqX XOXOX X.X.X X X X Xk.k. X!.j.j.g.g.g.p.p.p.w.p.q.q.6.l.7.6.3.5.3.3.1.3.2.2.2.2.<.<.1.<.<.<.<.<.<.<.<.>.:.",
",X1XqX,X,X0XVXSXFXGXVX1X%XXX.X.X X.Xk. Xj.j.k.k.j.j.k.j.g.g.g.s.p.p.p.q.q.6.c.7.6.9.5.5.3.3.3.1.5.2.2.2.1.2.2.2.1.1.2.1.1.1.4.:.",
"1X,X1XqX2X=X1XrXmXSXSXrX&XOXOXOXOXOX+X;XwXrXrXrX7X].W.Q.E.k.j.Q.s.p.p.w.w.q.n.7.q.9.9.5.9.5.5.3.3.3.3.3.2.2.3.3.2.1.1.3.1.3.4.:.",
"2X2X1X1X1X2X,X,X0XrXmXwX%XOXOX.X.X.XXX+X;X8XnXVXFXVX3Xk.!.k.Q.f.g.a.p.p.w.i.n.0.q.q.9.9.9.5.5.5.9.3.3.3.5.1.3.3.5.3.3.3.3.3.5.l.",
"0XqX2X2X1X,X2X,X&X1XqX%X@XOXOXOXOX.X.X X X~.XX;XnXVXeX;X].].E.g.g.g.g.p.s.i.M.0.q.q.q.9.9.9.5.6.9.9.9.3.8.5.5.5.5.3.5.5.8.9.5.l.",
"wX0XqX2X2X1X,X,X&X&X$X%X@XOXOXOXOXOXOX X.X.X.X~.;XrX7XeX].~.!.E.Q.W.Q.I.d.g.A.0.w.w.w.w.q.9.9.5.9.9.9.9.3.8.5.5.8.5.8.9.9.9.6.c.",
"iX0X0XqX2X2X1X<X&X%X&X&X%X@X@X@XOXOXOXOX.X.X.X X+X+X+Xk.E.E.E.E.E.W.Q.P.I.P.G.U.P.L.L.d.d.I.I.U.x.e.I.e.w.0.w.6.9.q.6.9.9.q.5.c.",
"iXiX0XyXqX2X2X1X,X=X&X&X%X%X@XOXOXOXOXOX X.X.X.X!. X~.~.!.E.E.k.k.h.h.g.d.g.A.e.d.L.d.d.e.d.I.U.'.3X3X3X4X'._.f.w.q.0.q.0.q.q.c.",
"gXiXiXiXyXqX2X2X2X<X=X*X&X%X%X%XOXOXOXOXOXOX.X.X X X~.~.!.!.!.E.E.j.j.h.h.g.A.e.g.s.e.s.e.e.e.e.f.d.U._.'.3X5X3X'._._.U.U.U.s.v.",
"AXBXMXkXhXdXdXwX2X2X1X,X&X*X%X@X%XOXOXOXXXXXXXoX.X(..X~.~.W.E.E.E.k.k.f.P.h.A.e.s.s.w.s.p.w.w.w.e.e.s.d.L.I.U.U._.`._._._.I.P.v.",
"kXAXGXFXAXMXkXdX0X2X2X1X<X,X<X<X,X,X+X&X$XOXOXXX.X.X.X(.~.~.!.W.E.E.P.k.P.P.Z.x.g.d.s.s.s.s.s.p.s.w.s.s.s.s.d.e.s.s.d.L.U.'.`.J.",
"hXgXkXZXBXkXgXiXiXiXiXtXtXiXyX>X:X=X&X#X@X#X@XoXoXoX.X(..X~.~.W.E.W.E.P.L.k.A.U.h.d.d.s.s.d.s.s.s.s.s.s.s.e.s.U.'._.`.4XvXbXVXDX",
"kXkXhXhXkXkXhXdXsXiXiXyX2X<X<X:X:X:X:X>X;X>X-X-X;XoXoX(.(.(.(.W.!.W.E.E.E.E.A.x.h.h.h.d.s.s.d.s.d.s.d.s.s.s.d.f._.3X4X5XnXbXDXDX",
"jXkXjXkXhXdXgXuXuXuXiXiXyXyX>X1X<X:X&X&X$X:X>X;X9X-XoX@X$X7XeX7X6X].].W.E.!.G.I.E.L.P.W.`._.g.h.d.d.d.d.d.d.d.s.p.d.s.d.Q.3X7X5X",
"jXCXjXkXkXhXhXhXgXgXuXuXtXyXyXyXqX1X1X>X>X>X>X:X-X;X$XoX/.+X{.6XeX7X|.W.W.~.A.U.P.P.P.P.).U.h.L.d.P.d.d.L.L.L.L.d.h.L.L.h.g.a.v.",
"CXCXCXCXjXNXjXNXhXhXjXjXjXfXfXpXsXfXsXpXsXrXeX9X9X8X7X6X6X6X|.-X{.+X/.(./.~.G.U.W.I.I.P.P.P.E.E.!.E.k.j.j.k.d.P.W.Q.Q.`.`.H.H.xX",
"CXCXCXCXCXjXjXjXjXhXhXhXgXsXsXsXtXtXuXtXtXtX8X>X6X8X8X;X;X;X;X{.)././.(.^.~.G.Y.W.^.W.E.W.Q.G.^ z.z.z.B.K.xXxXcX' ' ' ` ' ` ` _ ",
"AXAXZXCXZXCXjXMXjXjXhXfXgXsXsXsXsXsXsXwXtX>X>X-X:X{.{.$X#X@X@X@XoX/./.(././.K.K.K.K.xXxXxXcX_ _ ^ ^ a ^ V.M.z.z.z.x.x.x.L.W.~.W.",
"AXAXAXAXAXAXZXCXNXNXNXjXjXhXhXfXsXsXpXtXtXtXtXtXtXtX9X4X'.v.v./.#X@X/./././.H.V.B.b.v.v.b.cXx.^.Y.W.W.W.W.W.Y.Y.^.^.^.Y.Y.Y.Y./.",
"ZXBXBXmXBXBXBXBXMXMXmXmXMXfXfXfXfXsXsXpXsXtXtXtXh ; & 0 > > > > h [.[.[./././.^.(./.^.~.4XV./.T.Y.Y.Y.Y.T.Y.Y.Y.Y.Y.Y.Y.Y.T.T.T.",
"nX5XaXaXaXaXnXnXBXmXnXbXnXaXfXaXaXpXpXrXeXpXeXpX& @ @ & p w p & d $X[.[.{.{.{.{.T./.T.^.K.H./.Y.Y.T.R.R.R.T.T.T.T.Y.Y./.T./././.",
"A.Z.-.;.l.l.z.l.u.u.u.3X5XH.S.F.K.5XH.3X4X5X5XK.g p e @ $ $ # @ d 5X4X5X|.}.`.`.}.).R.).xXb.T.T.T.R.}.}.T.R.}.}.R.T.R.R.R.}.R.R.",
"-.C.D.n.:.-.-.-.-.-.r.%.l.D.n.-.-.-.-.:.=.;.A.J.n.*.*.s r r r w s =.n.M.S.J.S.C.c.S.J.S._ M.3X'.}.'.4X4X'.`.'.|.}.}.}.}.}.|.}.6X",
":.%.S.vXC.S.l.;.r.r.-.-.-.r.3XJ.F.u.-.-.:.:.-.r.S.F.F.C.&.f s s s s *.&.o.-.Z.Z.C.=.:.=.  $ S.Z.m.M.C.p & ; $ p p C.3Xm.H.l.; g ",
"y.u.=.N.y.D.y.y.r.u.r.u.u.u.y.t.F.J.u.y.y.C.C.y.y.Z.D.zXC.n.y.=.=.&.u.zXD.&.y.t.D.vXJ.f   & zXD.m.D.zXg j lXzX^ O = ; . ; X X + ",
"u.u.t.t.t.D.n.Z.u.u.u.u.u.u.=.y.F.zXu.3XF.u.S.F.Z.Z.u.J.F.Z.Z.y.C.S.C.Z.J.S.Z.D.C.Z.J.t.  % F.J.u.Z.S.Z.F.vXvXzXt.j N.lXj lX^ lX",
"d d d d d i d d *.i i i i i e e e e e e e e q q q q q % % q q q q q q q @ @ # # # # # #     & # * * * * * * l ) ( ( l ) ) ( ) ' ",
"          . . . . . . o . o o o + + + + + : : : : : : > > > > > k > 9 9 9 9 / k L 9 ! 0   O / / / I ! ~ ~ ~ I P Q R P Q Q ! Q Q ",
"7 7 n K A S M S S S U U U T T T U U U U U T T E K E T T U T T T P R Y Y Y F Y Y R Y Y G   o R Y Y Q Y P H P Q Q Q Q Q ! Q Q Q Q ",
"U S D U Z Z Z Z A A A A S A S S S S S A S S S F S S A S U Z A U F D S S U F D F H F D W   X I P I I ! I I ! ! ! ! ! ! ! ! ! ! / ",
"C C C C C C Z Z C Z C Z Z Z Z Z Z Z A A S S S S A A A A A A A A A F F F F F F F F F F G   o T L T P L I I I L I I I L I ! ! ! ! ",
"v v v v C v C x x C x v v C C C C C C C C Z Z A A A C A A A A M M A F K M M M M V V V 8   X 8 H H V H H H H G W W H H J J J J H ",
"m m m M M M M m m M A M m v v v v v v v v v m v m v v v v c v v v m m m M M F M V V K 4 7 : 8 8 6 3 , - , 8 , 8 8 N G G G 8 G G ",
"M V M M M K K K M M M K M M M M M M m M M m m M m M m M M M b M M M M m M M m m V m m V V A A m F N m m N m m v m m m m N N N N ",
"K M M M V M K M M M M n b b M m M K M K M M M M M M M M m m m M M K K M M M M m m c b c 1 x z z x x x c c N c c c m v v J N v N ",
"M M M M V M n M M M M V M M M M B M K M M M M M K M M V M M b N b n K K K K V V M c b M M N B m N c N B N b N c c c c c x x G x ",
"M M M b B M n n n n M M M b b m M n M M M M M b M M M V M B M M N b b c N V 5 n n M V B K V N V M b B K K B b N N N x x c x z 1 ",
"K n n B n n B b b b b B M b b n b b b n b b M b c b b B V B B b B N K n b b b B b b n n B b b c 1 c c c N c c b N N c c N c c x ",
"b n 7 b b 2 b b 5 n c 5 b 5 n b b b b c c b b n b b 5 2 n n n 7 b 5 b n n b 7 b b 2 2 b b 6 6 b 2 5 5 b 6 b 2 1 - z x 1 x 1 1 1 ",
"5 5 2 5 5 5 5 5 7 5 2 5 5 5 5 7 5 5 b b 5 b 5 5 2 5 7 1 1 2 5 5 2 2 < < 2 , , 5 5 5 7 5 7 B 7 7 5 2 2 b 7 6 6 3 1 1 - - - - - - ",
"5 5 5 5 < < 5 5 5 4 5 4 5 2 2 5 5 2 5 5 5 5 2 < 2 2 2 2 2 3 < 5 2 5 2 < < < , 2 < 5 7 7 5 2 6 3 < 3 3 6 6 6 3 , 3 3 , 8 , , , 1 ",
"5 4 < < 4 < < 4 < 5 4 4 5 4 < < 4 4 5 4 < < < 2 2 2 5 4 3 4 3 2 3 , , , < 4 < < , < 6 7 5 4 < 6 4 < 3 6 4 8 8 8 4 3 - - - - - - ",
"4 4 < < < 4 7 4 4 5 4 4 4 4 5 5 2 < 4 2 5 4 < 5 2 < , 3 4 4 4 4 3 < < < 3 3 4 4 < < 7 4 6 7 7 < 3 3 < 3 < 3 3 6 8 8 - 8 , - - - "
};
