/* XPM */
static char *_41d4c061c444a9ee964ae41a08a279a854PQ9kb62stCw3G[] = {
/* columns rows colors chars-per-pixel */
"64 64 220 2 ",
"   c None",
".  c black",
"X  c #1B0000",
"o  c #041219",
"O  c #191211",
"+  c #1C1B1B",
"@  c #0F0B0D",
"#  c #220000",
"$  c #2B0000",
"%  c #261600",
"&  c #2E1709",
"*  c #002100",
"=  c #352A17",
"-  c #2F230A",
";  c #001722",
":  c #0D1030",
">  c #002239",
",  c #0A272E",
"<  c #252826",
"1  c #393729",
"2  c #333733",
"3  c #460000",
"4  c #4E3307",
"5  c #004A30",
"6  c #744D07",
"7  c #504129",
"8  c #684E20",
"9  c #000D54",
"0  c #193E57",
"q  c #002F50",
"w  c #001A66",
"e  c #003E68",
"r  c #1B405E",
"t  c #06725D",
"y  c #3A655A",
"u  c #18527B",
"i  c #18486C",
"p  c #007D6A",
"a  c #007866",
"s  c #007F7A",
"d  c #237266",
"f  c #575954",
"g  c #5A544B",
"h  c #4C6758",
"j  c #79674B",
"k  c #465D6B",
"l  c #5E6165",
"z  c #437869",
"x  c #6B6C6A",
"c  c #676866",
"v  c #73777D",
"b  c #8A5500",
"n  c #935200",
"m  c #AE5F00",
"M  c #9D6F1A",
"N  c #AC7800",
"B  c #BC7A00",
"V  c #B16E00",
"C  c #88662F",
"Z  c #8F6931",
"A  c #A87725",
"S  c #AB7835",
"D  c #C07D00",
"F  c #897B45",
"G  c #837A73",
"H  c #008979",
"J  c #20816F",
"K  c #B8853A",
"L  c #C78601",
"P  c #D48B00",
"I  c #CC8E08",
"U  c #ED9400",
"Y  c #FC9D00",
"T  c #F19D00",
"R  c #ED9F1A",
"E  c #FFA300",
"W  c #FFAB00",
"Q  c #FFAA16",
"!  c #F6A80D",
"~  c #D39134",
"^  c #CF8F25",
"/  c #E99D29",
"(  c #FAA92D",
")  c #FFB031",
"_  c #B48757",
"`  c #888575",
"'  c #978578",
"]  c #968977",
"[  c #A58969",
"{  c #B08E67",
"}  c #C99445",
"|  c #F8AE47",
" . c #F3AF53",
".. c #C79D68",
"X. c #F7BB78",
"o. c #E0AB62",
"O. c #FFC06D",
"+. c #165D8A",
"@. c #005292",
"#. c #156496",
"$. c #00669D",
"%. c #2F6A96",
"&. c #0066A9",
"*. c #106BA1",
"=. c #0D7CBD",
"-. c #0377B8",
";. c #1778B3",
":. c #1071AB",
">. c #3674A7",
",. c #2C79B2",
"<. c #456E93",
"1. c #4E77A7",
"2. c #0077C8",
"3. c #518F81",
"4. c #79838A",
"5. c #6C9993",
"6. c #6A948C",
"7. c #70A69C",
"8. c #0884C7",
"9. c #1C86C8",
"0. c #008DD4",
"q. c #008DD9",
"w. c #048AD6",
"e. c #188DD3",
"r. c #0091DC",
"t. c #0C92DB",
"y. c #1992DB",
"u. c #2787C9",
"i. c #2B93D9",
"p. c #228ED3",
"a. c #0094E0",
"s. c #1997E3",
"d. c #008FE3",
"f. c #2399E3",
"g. c #769FC6",
"h. c #868788",
"j. c #899398",
"k. c #949494",
"l. c #9A9996",
"z. c #9C9C9B",
"x. c #979798",
"c. c #908695",
"v. c #A58F88",
"b. c #9EA196",
"n. c #BDA48B",
"m. c #A1A09D",
"M. c #A8A298",
"N. c #BAAA9D",
"B. c #9D9FA1",
"V. c #A09FA0",
"C. c #85AEA2",
"Z. c #A4A4A3",
"A. c #ACABAB",
"S. c #A8A6A5",
"D. c #B0ADAB",
"F. c #B4B3AE",
"G. c #B4B4B4",
"H. c #BBBAB7",
"J. c #BBBBBB",
"K. c #B4B7B8",
"L. c #ADB8B6",
"P. c #CEB79A",
"I. c #D6B895",
"U. c #C9AC8E",
"Y. c #E6BD8F",
"T. c #E4BC92",
"R. c #C5B9A8",
"E. c #C9BEB0",
"W. c #FBC68B",
"Q. c #E6C49D",
"!. c #FAC999",
"~. c #DBC1A6",
"^. c #C5C2B6",
"/. c #DCCCBC",
"(. c #D7C8B6",
"). c #E4CAA9",
"_. c #E5CDB2",
"`. c #E7D2B8",
"'. c #FDDBBA",
"]. c #98ACC5",
"[. c #B9BDC2",
"{. c #C0BFC0",
"}. c #AAC6C1",
"|. c #B9C1C3",
" X c #B8D0CA",
".X c #C4C4C3",
"XX c #C9C7C3",
"oX c #CAC9C6",
"OX c #CCCCCB",
"+X c #C4C7C8",
"@X c #D3D2CD",
"#X c #DCD6C9",
"$X c #C9D3D6",
"%X c #D4D4D3",
"&X c #DBDBDA",
"*X c #D4DAD9",
"=X c #D0CFCF",
"-X c #EBDCC9",
";X c #ECDBCC",
":X c #D5E0DE",
">X c #F9E3CB",
",X c #E7E3DB",
"<X c #F4E5D3",
"1X c #FAE9D8",
"2X c #FFF0D4",
"3X c #C1DCFC",
"4X c #DBE3E2",
"5X c #DEECEB",
"6X c #E2E3E3",
"7X c #EBECEC",
"8X c #E8E7E5",
"9X c #F5EEE6",
"0X c #F3F1ED",
"qX c #FDF5E9",
"wX c #FFF3E2",
"eX c #F3F4F3",
"rX c #FDFBF3",
"tX c #F5FAFA",
"yX c #FEFFFF",
"uX c #EDF1F1",
/* pixels */
"                                                                                                                                ",
"                                                                                                                                ",
"                                                                                                                                ",
"                                                                                                                                ",
"                                                                                                                                ",
"                                                                                                                                ",
"                                                                                                                                ",
"                                                                                                                                ",
"                                                                                      F.                                        ",
"                                      m.A.                                            G.m.                                      ",
"                                      S.J.                                            ^.Z.                                      ",
"                                      A.oX                                            oXS.                                      ",
"                                      G.                                                J.                                      ",
"                                      H.                                                .X                                      ",
"                                    z.J.                                                H.l.                                    ",
"                                    Z..X                                                .Xz.                                    ",
"                                    H.OX                                                OXF.                                    ",
"                                    G.                                                    .X                                    ",
"                                  l.G.                                                    G.x.                                  ",
"                                  z.k.                                                    k.z.                                  ",
"                                  Z.k.f c c c c x x x x x x x c x x x x x c c x x x x c f z.Z.                                  ",
"                                  G.                                                      =XK.                                  ",
"                                k..X                                                      %XE.k.                                ",
"                                k.oX                                                        +Xk.                                ",
"                                k.oX                                                        +Xk.                                ",
"                                S.OX                                                P T     OXS.                                ",
"                              k.H.OX                                                K O.    .XS.z.                              ",
"                              k..X%X                                            z 5./.).(.`.@X+Xh.                              ",
"                              k.OX                                            K.4X(.} v.;XQ.Q.<XJ.                              ",
"                              z.OX                                          * 5X9Xn.K./.I.(././.rX&X                            ",
"                            l.A.OX                                          5  XyX*X(.U.,X-XP.(.;XyX                            ",
"                            k.G.OX                                          5 7.yX,X] E.I.` XX`.<XyX&X                          ",
"                            k.J.%X                                          y a :XyX4XR.%XuX_.F b -XeX                          ",
"                            k.OX%X                                            a 5.rXyXyX7XR.l.H , B rX|.                        ",
"                          z.m.OX                                2 8 A K R ^   d H }.yXyXeX@XtXC.p 3 Q.@X                        ",
"                          l.Z.=X          D.                    < X L E ! U 4   d H *XyXyXyXyX$Xa . _ 9X                        ",
"                          z.A.OX        eXyX`                   . l N.U.+XW.U   y H H 4XyXyXyXuX3.. S yXK.                      ",
"                    { #X  h.J.%X    6XyX0Xc.4.          eXrX    . k.yXyXyX!.U j   h p H *XyXyXyX6.. L qXeX                      ",
"                      P.,Xj.XXXX8XyXyXF.l -.d.1.        [.].    . v eXS.@XR.V C       t p }.tX:X> ^ E !.yX%X                    ",
"              (.8X      ~.#X[.^.0X*X      u.s.2.9     1 . 2.2.  N ] tXoX6X1XE A               , 4 R ! Y '.yXOX                  ",
"              ..Y.<X&X  . >X*X^.      .X    w.g.[.    2 - 1.3X8X  # J.yXyXXXW S 2.,.            Z W Q Y Y qXyXE.                ",
"                    ).9XA.~.eX      oXyX    [ 9XyX6X      I 2X$X<.. S.yX6XB.| v.d.s.t.t.8.+.= . = / E W.W.W.yX7X                ",
"          [ wX1X<X7X6X1XyX0XyXJ.  .XyX&X    P W.yXyXXX    v 1.2.i.$.x.yX7Xj.o.c.q.e.q.q.q.q.9.u . ~ E X.0XX.yXyX                ",
"                  ).rXyXyXyX6XOX7XyXeX      M W >X7XJ.>.9.q.a.i.w.;.@.M.yXqX..,.q.e.q.q.0.0.r.p.9 D ) Y >X<XqXyX                ",
"              #X_.T.~.9XyXyX0XyXyXyXk.        P ' =.2.r.r.e.e.w.q.;.,.$.x G %.0.e.q.q.0.0.0.0.i.$.b ( E | rXyX8X                ",
"                    F V W.qXyXyXyXOXl.6X^.h.. $.0.q.y.0.0.w.q.0.0.q.;.p.2.w &.y.0.0.0.0.0.0.r.s.e.q P ) Y W.yX%X                ",
"                    z.k m ( '.Q.`.6XyXyXyXyXD.9 i.e.w.0.0.0.0.0.0.0.q.8.f.,.%.r.0.0.0.w.q.8.#.-.u.e 4 ^ W E Q.                  ",
"                    m.m.4.[ n . B W.2XrXtXyXyXg :.t.0.0.r.0.0.0.0.0.0.q.a.#.=.q.0.0.0.w.r.*.X X X X . . 8 Z 6                   ",
"                    z.k.oX$X    2 b D  .!.>XwXG $.f.w.t.0.0.0.0.0.0.0.0.t.=.8.q.0.0.0.q.0.r - 2 1 ` D.m.h.j.                    ",
"                    z.x.+X@X      : C T Y Y Y 6 -.2.8.:.0 8.q.0.0.0.0.0.0.0.0.0.0.0.0.t.+.          &XOXl.Z.                    ",
"                  z.V.B.%X=X        7 Z ~ ( B > u 0 r X X #.a.q.0.0.0.0.0.0.q.0.0.r.t.#.            oX=Xx.V.z.                  ",
"                  b.m.Z.&X              ; = ; o X X X + < X #.0.r.r.r.q.r.q.r.a.q.8.u &             OX*XZ.V.z.                  ",
"                  l.x.F.%X                o O + + 2   < O O X 0 #.8.8.8.=.+.u +.i %                   %XA.z.z.                  ",
"                  B.k.J.OX                              1 + + X X X + % X # # $                       %XK.k.z.                  ",
"                z.Z.x.OX@X                                                                            =X.Xx.Z.                  ",
"                z.Z.z.%XOX                                                                            OX%Xl.Z.z.                ",
"                z.z.Z.&X=X                                                                            OX*XZ.z.z.                ",
"                B.k.D.&X                                                                                4XG.x.S.                ",
"              x.S.k.J.%X                                                                                6XJ.z.G.                ",
"              z.A.B.%XOX                                                                                @XOXx.G.m.              ",
"                k.B.oX                                                                                                          ",
"                                                                                                                                ",
"                                                                                                                                ",
"                                                                                                                                "
};
