/* XPM */
static char *result[] = {
/* columns rows colors chars-per-pixel */
"64 64 102 2 ",
"   c #194205",
".  c #154801",
"X  c #1B4C06",
"o  c #1D4C09",
"O  c #0F5100",
"+  c #165302",
"@  c #1D5304",
"#  c #175802",
"$  c #1C5C03",
"%  c #1D5409",
"&  c #1E5D0A",
"*  c #1D4E10",
"=  c #224E0D",
"-  c #235505",
";  c #215C05",
":  c #22550C",
">  c #255C0B",
",  c #295D0D",
"<  c #255412",
"1  c #295615",
"2  c #265A12",
"3  c #2A5C13",
"4  c #2D5C19",
"5  c #315B1B",
"6  c #1E6104",
"7  c #1E610B",
"8  c #1E680E",
"9  c #236305",
"0  c #2A6506",
"q  c #276805",
"w  c #2B6907",
"e  c #25650A",
"r  c #29650C",
"t  c #26690B",
"y  c #2B6B0D",
"u  c #316D0E",
"i  c #386F0A",
"p  c #2E700E",
"a  c #32710E",
"s  c #3C750B",
"d  c #266312",
"f  c #2C6413",
"g  c #266911",
"h  c #2D6D12",
"j  c #2E6219",
"k  c #2E6C19",
"l  c #316615",
"z  c #316D14",
"x  c #386D15",
"c  c #32651A",
"v  c #346C1A",
"b  c #386E1C",
"n  c #2E7113",
"m  c #2D711A",
"M  c #337315",
"N  c #397415",
"B  c #367816",
"V  c #3A7916",
"C  c #35751A",
"Z  c #3A751B",
"A  c #37781B",
"S  c #3B7B1C",
"D  c #356720",
"F  c #3A6D20",
"G  c #327320",
"H  c #3B7521",
"J  c #357B22",
"K  c #3D7D21",
"L  c #39792B",
"P  c #437A13",
"I  c #44741C",
"U  c #417D1D",
"Y  c #417723",
"T  c #427D23",
"R  c #457B2B",
"E  c #3F801E",
"W  c #3F8023",
"Q  c #3D822C",
"!  c #43811E",
"~  c #4A831E",
"^  c #50841F",
"/  c #438223",
"(  c #4A8524",
")  c #4A8A26",
"_  c #458529",
"`  c #49852A",
"'  c #46882B",
"]  c #4B8A2C",
"[  c #558B23",
"{  c #548D2B",
"}  c #4F9027",
"|  c #53912E",
" . c #448330",
".. c #4B8530",
"X. c #4F8E31",
"o. c #528D33",
"O. c #4E9133",
"+. c #549333",
"@. c #5A9333",
"#. c #5B9C35",
"$. c #5A9739",
"%. c #639D37",
/* pixels */
"  = 1 5 . : 4 j % , j f r @ f @ e l h d d H r h e $ H h M 9 H n C h k 0 7 k $ v H K $ k v C > k j l d + d @ , 3 , > - 1 < * =   ",
"< < o : . j j 2 , - j C j N k C v x j g M f g K _ T C h k r K y M 9 M A A ' y S f r 7 K b e h d f M l F l j f 3 , 2 : 3 X 4 4 5 ",
"< 2 1 % f : c c v b f k l C R $ v z u M A z N M z S C z w n Z / # 0 r m M g C A M M C z S f A N > k l z T > f l c x < , 1 : 1 < ",
"o 1 X 3 3 j 2 Z d - - f h z f r N Z z z r r w } K / M z h M C A t S C K K C 0 M $ S C M v S h r 9 f v r l f z b f v @ : : D 1 1 ",
"o 4 3 % v - b , v x > C R h $ e S N b N y z Z K K n U y h u y M M y M & H r t W S y A z S z H Z r H T b - $ v v c c r - j c 4 < ",
"2 c X : c - d l F x r > 0 $ Z Z 9 y 9 i y y N { A n u M ! / A U h # 9 K y q p Q # w S y C z C N M k 0 # x d l l X x - , - F j X ",
": 3 v c f 3 x > f N 9 z k H r h N _ h N / Z C ( # p n A E t 9 A r _ K C K 0 w n Z z C M T h A K t z A C 9 f h H 0 f v l j I @ X ",
"3 3 v @ Y z f / z M Z C 7 H Z S n n S t C S q M z M M n Q y S y m M B M B { M S / q | V C ( y A A M h N Z C b h Z d b v @ 3 3 - ",
", c c I v f 3 ; v T R C C > 9 S ) U C w t t M y y S U ( q C V p t A C y h / y A h +.S M M 7 J S ] M C 7 9 Z / R f f : % v d - c ",
"v d F d H H C z S z U C C C C K S u M N ] n h q 0 ! / y S a A Z A C w y M M / h A y S C ] a ] M W Z Z k C A N 0 h H T k f , j f ",
"v v f f l H Z ; H Z M M S e h S M E ] $ ~ S 8 ! C A w M M h V S n M h h S S A A q N y / S q B K / C M 9 N C 0 H o.e I b % x f l ",
"c c v l z v z N Z z C M C K M A y N C M y W C _ S M / C ] A S y $ y W K S 9 C S K N C Z C W S h C A z S h C h y C x e C , Z v f ",
"- - l M ; M f U e C A y C K 9 K a P y A 9 E N n S N ] S q 9 C Z w A W y / A 9 q A B n N y S q C K h M Q t K w x 0 g ; Z v r v , ",
"r > T f r v Z M N S _ M M 0 M t S S S S m W 8 g S M W y A U A y n g w $ A S 9 t _ n M A w S V V W C C y K r C C H A h k > e N % ",
"- H Z l C Z y t H S C u 9 M 6 A y M / p E S A n S q y +.S A _ 6 B / C S C M 9 / V M C K 0 y W E M N t S 9 S h y S r T v M f k @ ",
"b 0 v h f T / M M z r C S A A p C n ' h A S y n S y g t q t A B V M K S q A N V A N y ! S M n M p S S A S y A y / k G C r f Z @ ",
"H e G h N M C y y h M h w n 6 A M A A M / / N 6 t y h S m M S 9 ! S Z q A n S ; W M S V M n y n a n n M 9 C C K z A Z T x > C e ",
"l T l A C f T S U C / a U A @.n M _ q M A C ) C a C q M V W q & ( ( C M N E ! S B U A y A B E n E n C A / h y ) 6 Z C M o.z v v ",
"z z b r n H r 0 z A q S h h S a S A S A n h n M S C q p ! t M B y K A M A C C q A y S A 0 e M N 9 S h t K 0 N S / C u M f y N , ",
"v S M r M J 9 t A B M / S p z / B e 0 6 M / u M h A y A / / n p A S S S A V A S S A y A y t h B N C U q h / A e r $ k n w k r v ",
"h x Z $ A S C M n S M C y W 0 E / S V M W 9 E M K e $ C S X.A K a ) _ S ! t M B / a M ) m A B S S A w W M A / N A h A e A k M & ",
"9 h Z h Z r h e ! n S S #.K A S S y B ; t w 8 s 9 w n S Z U y M u y M y S Z y t K h S t M p S M S M #.S N N S q C 9 e w y M 0 > ",
"k h C C T h C t M ! ~ S K W A K m M S N S N B C W k S S h n / w M M M / y $ A S M S / 0 S g C / ~ U ! A M S n C A M Z N C C K h ",
"r v A h M A e m 9 y J A y h w n n A / ) A ! A A w k 9 A U C C ' B M y B K A n S K y J A t n t A A N h r 9 n p A S / C U J A e l ",
"A / A 9 M A S M S K S y t 6 A y 6 M 9 h q C q # y h M S N u ! W T M 9 C 9 A S / n 9 M N S a S A ! y p # M h y n M t y A $ y r g ",
"f 9 Z / S y y h M A M S t y A S q M _ y t y A C M M 9 n ; M 0 W M S n / ) ! A 0 W / S p y t y M y A M q A K t C ` q 6 S M M z & ",
"y Z A S M C _ ! h K ) h y _ S p h y M w M $ S k y / h e A M M 6 n n B M a U n V ) E M B { _ y / ) h t / A 0 h M A 0 C 6 A h r A ",
"M z y r K y q S M A V / w e N n u n _ A t p A n y S ) A M S q h M 9 y p M M V B C 9 W n h S y B y / h t S e A n / C h h C 0 h C ",
"/ S _ M y k A M _ n C m S A M M M 0 N w y W K w A M V 9 t M S _ n C C 6 n C S _ W S M C S C / A V m C M M A S 0 h w z S K > S r ",
"> Z u ' C S a S ( e ' 6 h ( p S ] S y y S t 9 M q C ) S S A M w t n w / B A N N e M y / w B / ; / 6 q | C E / S y u / M # C f Z ",
"$ z h n ; ) C C S n h m A y y M t q y M S y A y A q C _ q S S y 9 B y A 9 A q M y A w ] C N A V M k s w n p t q y N M Z A y N 0 ",
"g 9 A C S ~ J C A M w y B | C w K n C n w K t C z S V N ; Z M C C 6 M W S / n y B M S B J E A n w C A +.C 9 _ M N C $ K 9 z r A ",
"T y h M h W ] A A S S t C $ A A 6 6 p E M n B M W y V S O.S C N M A L O M S ) M M M y A E V M A N A h q S A y 9 n M p A y C A e ",
"z C M M M a A S S y y K S B A A A n M M h M n 7 S M M E S n N C w M K A S n n n C n M M A C S t y ! ! C M W n n M M B C y 9 H z ",
"q r M n 9 S E S w Z S M ( A M / r 6 S z C h r y W n 6 M C q M n W V M S W M q y w S q T B M h N M M S M m S r $ / V C h y k Z f ",
"M z M S e p #.n h V ) y _ S M 9 W t N h @.A A n V ( n V E ~ y w S t / 0 M y M z U _ 9 p %.A y A / y A S M 6 K C A n | a U y S K ",
"r k 9 k A y S n U M U C A a M w A V a A S h W C p w n S M q M M B A C A p ! 0 A 9 m S M ) y T h / C A A p y / A n S A f S k y r ",
"r m C S M y Z M S U C A M ~ C S h M A k w A S A E _ y M M S _ C / y M / B J n y z U A n _ M A S h N S B B N y B S h g N S M S E ",
"A S / N S ( M M y S p y a S A S ] A A / w n e M n S W / h A M W / B M 9 S u W S W V S ) M K q A t M y W S ( ( V M / y M 9 z $ h ",
"S y H h J 9 q ! / C ) S S ! ( W M ) U A ( S S ] q t E _ [ h ' E ) 6 h _ w S ! A S M _ w 9 S W M T S S ( V ~ k ] V S ( N S / 7 r ",
"> C A y C A y ( ! q A N h S y y M / M _ y ) S ) A / ' t ] / S h M A K n S p g B S M z M n / S n A h A S n e t S C A w ' A T M Z ",
"> S x M / A y ( h Z V ( t h y h C / h ] M 6 y M S A / M / 9 W M 0 M A A w N y S S A ( C N ! Z A A { t a V 6 M V r / n w g r A z ",
"M z v y y A A M M q n t ) S A S C n A y K n A / B A N C K S A S a _ M A n S V C C y t M M M S y N M / B A M y y C y / f K Z v G ",
"S f Z # S T C z V n A H ( p M ( S A S #.C ] n w y K S K + A n n C e N y A ( _ n C 6 K ) A n a M C y ~ A y $.E M V ] y J C h f Z ",
"r H M N _ { z A n K n S M h K A V C S A C h S A K C n S A S t S V ! ! S y S p A A V / / A S h y h A u w ! S C V B A C e / C h z ",
"f z T M T h y y p k n S y t M n M C S n n A C M B w n q A h A M M A A y M / N S ( M ) y q C A n M a t e z y a C K r G A M h l d ",
"x f f M h r S K q 9 _ S m S S M a T n y C t $ M h $ S M K M W S S C K C B t M y M A n y U N y q ( A y w S A h A n h A ; ; v r @ ",
"h z C H r S z / W h S y S A w S h C A K ! 9 A A $.W h t B A y M 9 S / K M y M ! M N 9 A S S y n / y S A u V h p h k K 9 C C ..H ",
"H > z h Z r h M S V A C V / t A $ a w K C M A S M M y V / / M M S # M M M S W g n M S t C A S N S C S K y A # S r K Z h z C f > ",
"x j z u h T k h T A V h M E a / z q A K _ E B A w | t U A C M M h ) A _ A M K y M M a ( M A / C S M S N Z S y M C T ' S f x f f ",
"% , l r Z z 0 Z C M S w W p 0 h $ N M K y m S 9 Z w n ] +.y M A M ) y k A M t M C B C K 0 S C A A n y w ; r $ M h Z $ f v d z > ",
"f > f Z T h m r Z M W C  .M 9 J S V / y ! N y p 9 S ~ M A Z u y A N A A M S S M C M ) M C y S n S K ( w q A C A U r H z x r $ f ",
"j Z f r f K f y M C _ r y z K M S M m B C V S S B C S / M / V M S U m M A A A W a a n U N y W S ( y M M C y N k z n v x x v l , ",
", : , v R f A r Z Z M T K S / A y e S S W S W K Z q M S y S S B C A A M K t w n y C ] y V t A a M S H M A Z t f S C H v T b c > ",
"3 f b v z Z b x Z Z y z / G e Z w A S | A W n M M A q q # 9 C ^ y A A S / 9 A S E C C B S C S Z y Z U C & Z u Z T T z C , b f j ",
"f j 2 d l $ e F , H r u ` S A H C A y 9 N C B B y y _ M C ( S 8 S M q A h 0 A B y z S t z C y S y A C S C J Z x , > v > k l - : ",
"> 3 > , v f z f C f v C # N S m r V z A A ` a m A B h S C S C ! S V y M Z M M M t M / t A Z S M z A > N M v f x f x b b , 7 j 3 ",
": c : @ b d l f h x r G S x k C A C A U 0 V f A E y _ n V M # M u r S C 0 A 9 A n 0 ] k M r h h e K h M z C z v v b - v , > j : ",
"1 : 2 , b b b f v > z b z ` z M Z h z w 0 r +._ U ] M n y w U y w i A ] S _ S y y h T S / h A r Z K h _ A l f x > r @ 3 R F c . ",
"5 : 3 f f c d l b z d N 0 z H z 9 z M A h m S S z M S 9 r S J A M A A ) C S A N Z A h v A M M N k C h f H f f l h 3 f 3 c 2 : : ",
": c 2 5 - - b j l > , > v C h H l w e f M z r h C 0 S S M ( C A M r A f S M M ( n n 9 h U C Z l h > Z h v v , l @ f j > : : < o ",
"< 1 3 2 o : v 2 r l l > f l l Z S T d g h u M C r S A U Z z C w a M S q S y S C A 0 9 h A z f A z ; f f v d v x : : d 3 < 1 : 1 ",
"5 < 1 1 c : : f - j l v v + H z y Z v S z g x A C - Z r A T Z M k h h S H A T h f A S r z f $ v r Z v @ v l c 3 3 l j o 3 1 :   ",
"< = 4 : < c > 3 : j > 3 f F h b l % r Y h r M C h S M M Z h M Z A A M C n $ T k S M k H z f > v > f v v f b l + , j 2 < 1 < =   "
};
