/* XPM */
static char *result[] = {
/* columns rows colors chars-per-pixel */
"64 43 65 1 ",
"  c #304D1A",
". c #36541B",
"X c #3A561E",
"o c #3C5A1D",
"O c #375521",
"+ c #395622",
"@ c #3D5B24",
"# c #3F5C28",
"$ c #415D25",
"% c #425F29",
"& c #436126",
"* c #486727",
"= c #4A6827",
"- c #45632C",
"; c #49662D",
": c #47682D",
"> c #4B6A2E",
", c #506F2E",
"< c #476632",
"1 c #4A6632",
"2 c #4D6B33",
"3 c #4F6C39",
"4 c #516E34",
"5 c #526E3A",
"6 c #4F7033",
"7 c #537235",
"8 c #587637",
"9 c #5C7837",
"0 c #55733B",
"q c #59763C",
"w c #57783C",
"e c #5B7A3D",
"r c #607D3E",
"t c #567341",
"y c #5A7642",
"u c #5D7B42",
"i c #617E44",
"p c #627E49",
"a c #64833E",
"s c #5F8141",
"d c #648245",
"f c #688646",
"g c #6B8946",
"h c #65834A",
"j c #69864C",
"k c #6C8A4D",
"l c #708E4E",
"z c #71904E",
"x c #668350",
"c c #6A8652",
"v c #6D8B51",
"b c #718E54",
"n c #738E59",
"m c #749254",
"M c #789656",
"N c #7A9857",
"B c #76935A",
"V c #79965A",
"C c #7B9A5C",
"Z c #7B9760",
"A c #7E9D61",
"S c #819F5E",
"D c #819F61",
"F c #85A362",
"G c #84A369",
/* pixels */
"2205t03:ynuwqxxsssxxAnjeuu7up94qcphjpypppnprrSniirrpyr91r;X=$X,i",
"&2126:662wwu7uuedutshseseweuipi8idiibhkvpSpilppippppb9=4i4=X$$o9",
">$&&2tuxux0&6seuuuww62*:8dserqph9hrqrrpprnSpnlplrSS9ypy99;X.&%=9",
"2X&-<u3tuuy0txysseew0<7uqduw4,ijippprrppripirprippr199p994$$o;19",
">@+<3+#63t3ywxy5ty<<ttuu77<<-2542ipii9r55pppppqpii939pp4591XX$9q",
"ttt514<55tsuwccscu3wtuuspuuy515yypy%3111%yqpqpppSppy5551$;$.=155",
"0p53yty5scxxsnnnssuywujhjuhxctqjpiipi5503yp5yppSyppppy5$;1$39$4p",
"--&2htxnxnsxZnvhkhnhtunushhZbcnvppnnpbpppDpDpSBBSypDni5995$395yi",
"7:6<puusxsusvZuuhhhvdchjviikkmjpiriiijbiBnlbcSBnnnnnjpy9pp914plp",
"&:<-5sttwt7wsshteuddkku7e9hi8w8q52=riq42dr,7rkBbfnljrpljy9449pll",
"@.<<35t5<6:<xssuu0wusutw7t40;&;;52%;q45ui2;$7ikSfrjljppj95%X;%4j",
"+3cy6<<t<:ttuxxsuwwhsnswye000-;52%%2t22ijt54%qpcp919lnlpp111$+$9",
"%3tt0uustwxhhxuxuijchiiuqejhwh-2r3iyiyuyiyhp5ppjp459lcprj15954;r",
"<<1yy0uxuuhjsuhpuunujcBhyjmhjByqiippvnu5yqhBkkvknpp9fppaj5;144%5",
"#:5cutuyytxceppuicvuhVkhyhnywushqqqqq050hijBvpnljlpjjprp91%$1914",
"3t2uuuy<12qhuxcu7dchuhjhdbdeud682%14>05iiiiytkbbjnpjfjjr59599jff",
"2wequuw1<w0hsxhhsvcvjhjduhhw8222*-6e2du7q,;0qejbnlpj99p9191,995q",
"-#747117uuuxswhhdchhhduud47>>-$:-&>>>ewt>;;%7qiualr4945;$;$$$;;1",
"@::2501w706ww5wuuhwwy7w07>71>@;>&1:#>7wj42qq44dhjj955$4195111y55",
"17::uw66772707uwtuuuep0wq71:.:3w6-<70uhjyyi8ihiip95rp999y4ri9yq9",
"yu-+#-33e2:272ywpusyyyeesuwtw56s75svvvdukBvjjjhff999ilprppir9plp",
"yt23#-3eut3173tuxhtcje7wueujsyuxusududuubVmvhlbjc9rp9pppr99ipplp",
"0:-%115733:->>7y13jmce67wuhp0shhhfueuhyjcmjvkjjjlppp19p9prp99ipl",
"yu-O:5uwu512577<w7edew76:wwwwu0>khhuddjsdkjjfdii9p99p999rppy59pp",
"yy70&6syt5ssxhuuuwche6-8w6djs8wwwsvjwwkkdudzkjd45kjrlrri4rrprrlb",
":7xh6yux35wxuuhtw7vvh22u678868swsBvvMmhmjtykmVmjgipblpr7=49i9ppp",
"63yy550ww3wsw78&w2djc6ec0s860y6svVMGCGAvvhjjkADvljjmlciirr9pipil",
"wt22u550::%:7weww6hxs7sjswwsu0sjsxkCCVMCjejkkmmcclkpfjrkipipiilb",
"y0utw:560w66w628wevmnsssvxsdswhhvzCNvkkmjhbBjlbnljjpkbrriirrlpbp",
"060yu6w:66shdwwweszkhjwsssusxhvvmCABkmNvbgmSlBSVnjlkMMiklSlpllSl",
"66s2:w660wsssjsqfdlhskdsxs8sklVABmBBkmkNzbfBbBDSMblMkMlnSSSprypS",
"##20&&:uuw7y6s0tfesswwhkessdfkmmCmNmzkzvmnkbMSDMDSljpSSSbgSlrqrb",
"73-6-#-w0hssqwezsss8weefsdwshmkBmCkNmNACMCmhmMMzCCbikNzzmjfkirlb",
"#1<6&&2:<u76uiedhds77ssdssfdkzlmsmzzzNANNNrmFSlhSSMnmNMzlzMlralg",
"O@#<76##772$eswdd7>>>deeeuu>sssgsgzmmNzNljdzFMlfzMMggllzlazgrklf",
"<7&&-:&<6w61:&:7--->:,dqwusskhhd6kmvhsgsdmbkNzllfhbggaflaarlfggi",
"32O<::&%<<66@:2X24@4w>iduqdfdzBhssmmmhghrffjkkblflfpflBlggjhkrfg",
"<1-:<@O::&&-::ww>;27>2787qkdzNkMbkmmCghzjejdgmbbllmrfrbkbBgkdihk",
"t--<<-@:62#:6&6e8>;je$sB7ssvmjadmsssCkmgldgfhnhfbmzfrzgekkgkfkhk",
"-%%++.@-:&&<:>q8sewud4wf68skmf2inssszksskfkkhgpjlBbrglr9qijhiiyf",
"+ +O#-.$277e>::77>>>q7>e5,49iflknxxk76s87ajzkllliSprikrppfilfr4r",
"<#+X>>+&>-:,,:>77w&7s8ae92>9diyixvbsssa7>7798r94rrr8,8=qk4;8rr4$",
"%$%#-#%1-1w>:7-eeq>72>2>,=4>4&4yysvmbxhy7749r94;=gip4411kr528lf,"
};
