/* XPM */
static char *dd977180d15f4df3f42c130f5230bbabTaslQRVbk7gGUUFN[] = {
/* columns rows colors chars-per-pixel */
"64 64 241 2 ",
"   c None",
".  c #000000",
"X  c #070007",
"o  c #160000",
"O  c #000014",
"+  c #00001C",
"@  c #050719",
"#  c #161114",
"$  c #380600",
"%  c #280710",
"&  c #3B291D",
"*  c #302D0E",
"=  c #000022",
"-  c #00002E",
";  c #1B1A21",
":  c #000033",
">  c #001631",
",  c #2D1B24",
"<  c #003439",
"1  c #042C2F",
"2  c #292826",
"3  c #362B23",
"4  c #383526",
"5  c #3C393B",
"6  c #1C2700",
"7  c #450D03",
"8  c #4C2708",
"9  c #51280A",
"0  c #462718",
"q  c #503519",
"w  c #433B25",
"e  c #543729",
"r  c #613F28",
"t  c #094934",
"y  c #2C4B37",
"u  c #5A4F0F",
"i  c #675B1C",
"p  c #6B690E",
"a  c #585629",
"s  c #4C4B30",
"d  c #665C27",
"f  c #6A472E",
"g  c #526238",
"h  c #6C652A",
"j  c #746827",
"k  c #7B732E",
"l  c #7B7739",
"z  c #6D6C37",
"x  c #003145",
"c  c #261547",
"v  c #004B49",
"b  c #00554D",
"n  c #1A5646",
"m  c #005B59",
"M  c #004854",
"N  c #32564C",
"B  c #006356",
"V  c #006C5C",
"C  c #006858",
"Z  c #00755D",
"A  c #01795E",
"S  c #007356",
"D  c #106D53",
"F  c #296652",
"G  c #006863",
"H  c #007562",
"J  c #037A62",
"K  c #0B7C64",
"L  c #067A68",
"P  c #137C63",
"I  c #1A7D64",
"U  c #007E71",
"Y  c #237C64",
"T  c #327465",
"R  c #544D4B",
"E  c #675750",
"W  c #7C6959",
"Q  c #766F4C",
"!  c #575468",
"~  c #685B69",
"^  c #796768",
"/  c #796F75",
"(  c #4B715D",
")  c #897A00",
"_  c #85781B",
"`  c #86792A",
"'  c #857A36",
"]  c #897725",
"[  c #837251",
"{  c #8E7874",
"}  c #08826A",
"|  c #1B8067",
" . c #0E8A79",
".. c #258266",
"X. c #378B77",
"o. c #2F8B72",
"O. c #599059",
"+. c #489076",
"@. c #6F8872",
"#. c #76A273",
"$. c #6A9852",
"%. c #988D0B",
"&. c #A99B1D",
"*. c #AA9610",
"=. c #BAA403",
"-. c #B4A717",
";. c #96872A",
":. c #8B8436",
">. c #958B35",
",. c #9D9234",
"<. c #9C933B",
"1. c #93862B",
"2. c #A8972A",
"3. c #A49A3A",
"4. c #A69A37",
"5. c #A99427",
"6. c #AAA327",
"7. c #B7A527",
"8. c #AEA33C",
"9. c #B4A839",
"0. c #BCB132",
"q. c #C3AC04",
"w. c #CAB604",
"e. c #CCB71B",
"r. c #D2BB14",
"t. c #C2AC25",
"y. c #CAB938",
"u. c #CDB925",
"i. c #DDC500",
"p. c #EDD201",
"a. c #F6D900",
"s. c #F7D904",
"d. c #ECD11B",
"f. c #F4D915",
"g. c #F5D91B",
"h. c #FADD1B",
"j. c #F6D916",
"k. c #E2C814",
"l. c #FEE31D",
"z. c #FFE81F",
"x. c #FEE109",
"c. c #D8C527",
"v. c #D1C536",
"b. c #F8DC27",
"n. c #F4DC37",
"m. c #E7D130",
"M. c #FEE222",
"N. c #FFE42A",
"B. c #FEE53C",
"V. c #8A8745",
"C. c #978B59",
"Z. c #988E51",
"A. c #A69A54",
"S. c #B7AC43",
"D. c #BDB347",
"F. c #B1AA4F",
"G. c #9B8578",
"H. c #8F8A70",
"J. c #A7917B",
"K. c #A5936B",
"L. c #93AF74",
"P. c #B3AA72",
"I. c #98AB52",
"U. c #C8BB46",
"Y. c #C7B857",
"T. c #C2B978",
"R. c #C9BC6B",
"E. c #B1C37D",
"W. c #CEC348",
"Q. c #DBCD4B",
"!. c #D3C749",
"~. c #D7CB52",
"^. c #DDD253",
"/. c #D6CA4D",
"(. c #F3DD48",
"). c #E5D856",
"_. c #EADC4A",
"`. c #FEE748",
"'. c #F2E258",
"]. c #D2CA7A",
"[. c #E4D872",
"{. c #FCE865",
"}. c #FAEA78",
"|. c #FFF279",
" X c #8E7585",
".X c #359283",
"XX c #499884",
"oX c #539D8A",
"OX c #56A18D",
"+X c #5DA693",
"@X c #67AA98",
"#X c #78B8A8",
"$X c #6DB0A8",
"%X c #9A8387",
"&X c #979094",
"*X c #A48A89",
"=X c #AA9599",
"-X c #B5999C",
";X c #AD908F",
":X c #AAA68C",
">X c #B89BA5",
",X c #81BEAF",
"<X c #BCA8AC",
"1X c #848CA7",
"2X c #C6A7A9",
"3X c #CBABB3",
"4X c #D1AFB3",
"5X c #D4B2B4",
"6X c #D8B6BA",
"7X c #CEB1B6",
"8X c #E1BCBD",
"9X c #C09DA9",
"0X c #BCCD83",
"qX c #96C8BD",
"wX c #88C3B5",
"eX c #D8D886",
"rX c #C8CF85",
"tX c #E9DE84",
"yX c #DDE18C",
"uX c #E9E68B",
"iX c #FAEC83",
"pX c #F6EB8B",
"aX c #FAEE96",
"sX c #FDF495",
"dX c #F6EE8C",
"fX c #F8EFA3",
"gX c #BBBFCA",
"hX c #DCBCC2",
"jX c #E3BEC3",
"kX c #A1CCC2",
"lX c #EDC5C6",
"zX c #EDC5C8",
"xX c #EBC7C9",
"cX c #F3CBCC",
"vX c #F4CACB",
"bX c #FCD2D3",
"nX c #F5D7D9",
"mX c #F7CFD0",
"MX c #F9DDE2",
"NX c #FAE3E6",
"BX c #DAC0C8",
/* pixels */
"                                                                                                          D.S.S.U.W.            ",
"                                                                                                    (.A.;.=.w.6.b F <.9.        ",
"                                                                                                  Q.' *.b.{.iX|._.$.A 1.8.).    ",
"                                                                                                ).' q.`.iXaXiX(.l.f.O.O.7.8.    ",
"                                                                                                3.*.B.pXsXiXb.a.f.f.c.G F.-.8.  ",
"                                                                                              ^.` d.}.dXiX(.g.g.g.f.g.O.| d.;.^.",
"                                                                              Q.U.~.~.        D.*.`.dXiXn.a.n.n.M.M.z.I.H m.t.9.",
"                                                                          Q.>.g ( OX@.V.2.^.  3.w.}.iXn.s.h.j.n.r.=.=.p < 8.1.0.",
"                                                                        Q.a M oXqXqXwX$Xm d W.9.e.`.j.a.h.j.d._ ~ &X X*X{ . + v.",
"                                                                        ,.$.o.@XqXqXkXkX,XX.t a u.s.g.g.j.b.i.~ cX7XcXbX=Xu U.  ",
"                                                                        [ dXuX#.o.@X@X@X#XwX+X< ] b.j.h.h.a.p.[ zX X8XxXc 4.    ",
"                                                                      !.6 C.uXaXL.B Z Z K XX$XOX1 &.b.j.p.:XT.%.hXxXzX6X>X2.    ",
"                                                            v.y.u.v.c.l >X>X5 eXsX#.Z I J Z A X.Y x &.b.i.hXgX) 3XNXvX7X XS.    ",
"                                                    c.r.6.Z.J.*X;X;XG.4XmXmX7Xs uXuXA K P K K Z K P v ' i.F./ @.&X6X6X=X4 K.T.  ",
"                                            !.-.<.K.J.=X2XlXnXMXMXMXnXcXxXlXmX;XA.sXL.V Y A J K K H ..eXC.l H.H.2X&X&X=XH.J.:X~.",
"                                          U.Q -X6XxXcXmXcXnXMXNXNXNXNXMXcXxXvX8XQ sXeXZ I A J A K P Z dXR.>X<X&XcXmX<X( / :XQ.  ",
"                                          6.{ mXvXvXlXlXlXlXlXxXmXxXmXmXlXvXlXvX^ }.uXI J A A J J K H uXR.2XmX=X=XmX:XV.P.>XQ.  ",
"                                          0.R zXvXxXlXlX2XlXlXvXlXlXxXzXlXlXlXcX~ [.dX+.H P J J J K H pXR.9XNXxX! &X1XW.W.$XY.  ",
"                                          /.6 6XmXnXzXmX2X-XbXcXxXvXzXlXcXmXbX5X4 eXE.A P K A J J P Z uXT.6X7XW ].Q &X:X:XT.    ",
"                                          ).i  XcXNXnXxXlX/ 4X6X8XlXlX8X5X2X X, y o.V A K L J A J P V uXP.! A.uXrXG _ n.        ",
"                                            A.~ 4XnXNXxXvX%Xp V.Q Q E s . . t T n H I L L A K } J I Z eX].[.uXL.B P M 8.        ",
"                                            2.=X;XxXNXMXcX;X-.      m.;.> T I P R Y J K A J J J A P Z eXuX0XZ U XX+.Z $.        ",
"                                            c.G.6X7XnXNXnX2X&.      ~.4 Z K J J n T } Z J J J H J A C L...B I oXX.XX .g v.      ",
"                                              %.9XnXxXnXnX5Xp       ' v I H J J J n o.K Z J J J A n D V H P o..X( +.o.g Q.      ",
"                                              Q.Q xXxXxXmX6Xk     9.. F } J J J K Z P o.K J J D n n L Z A OXXXV M  .G >.        ",
"                                                -./ mXxXcXhX:.  U.2 < F | J J L A J J K o.L J C C Z J oX#X+XC s rX0Xg U.        ",
"                                                  %. XcXmX7X' 9.. C.0XV H Y K A J J J J J } ..X.+.@X#X#XoXD . Q eXP.9.          ",
"                                                    &.^ H.R > 5.u.' P.yXO.C K ..J A J J J L X.OX@X+X+.Z n . ^ 5X X)             ",
"                                                      p  ..Xv u.l.d.%.K.yXE.A V J I J L A } S t t 1 1 3 . 5 jXbX2X&.            ",
"                                                    /.u X.XX> ) M.h.h.w.[ T.tXL.| G P P S m y 4 3 ; , # R 6XxXmX-Xe.            ",
"                                                    3.] R { 2X*X*.i.f.b.d.q.Z.P.rXL.C < a ]     y 2 2 X E ^ R ^ E 0.^.          ",
"                                                  W.4.=.=XMXbXvX7X;X[ 7.y.t.e.q.k E a 1.        0 ; & & $ $ $ $ $ % j S.        ",
"                                                  S.y.=.=XNXlXzXvXmXjXW a.c.;.1.3 _             4 0 0 0 0 & & & 0 0 7 o Z._.    ",
"                                                  D.7.p.E xXvXlXlXlXvX>Xq.N.M.u.j ' m.      0.d 7 7 8 0 9 9 9 9 8 8 q 9 . ;.'.  ",
"                                                    1.b.i.{ jX4X6X5X{ <XA.s.g.l.h.q.j 9.    h o f E 7 7 9 r q 9 8 q X *X2X+ 4.  ",
"                                                    A.;.N.[ 4X2X8X3XK.G.*Xp.j.n.}.{.m.) :.    s o { J.W 9 7 f r e X ;X-X5X3X%.  ",
"                                                    D.= j H.-X X X XC.A.G.p.g.b.aXfXaX}.=.d !.m.q . Q *XJ.[ 9 f o >X;X5X2XzXP.  ",
"                                                  W.' _.,.; 2.i.r.=.i.A.[ s.g.s.pXaXfXfX}.m.u 0.n.>.8 o R W q 0 ^ ;X8X;XbX3XF.  ",
"                                                  1.c.l.h.e.j 7.b.l.l.k.r.h.g.f.n.}.fXaXpXiXn.i ,.B.y.4._ u a 6 3X<X5XbX9XD.    ",
"                                                3.7.x.(.{.'.d.;.s 5.m.l.l.j.f.g.j.h.'.}.iXaXiXB._ `         U.Q.F.hXBX2XS.      ",
"                                              ~.>.s.{.aX}.(.f.b., + + 1.t.d.M.h.h.f.p.a.n.{.}.}.N._ ,.            0.F.W.        ",
"                                              Z.q.`.pX}.f.s.b.5.+ O >.W.1.' 1.t.d.h.l.h.l.s.h.(.n.b.` 9.                        ",
"                                            /.1.s.}.}.h.f.b.c.2 + ,.'.      S.<.:.;.5.u.7.] j u a ] d >.                        ",
"      /.S.3.U.                              ,.=.`.iXb.s.g.b.] O 3.'.              Q.4.= < v C Z V V x 1.                        ",
"      <.O + ; 9.          ).D.4.>.1.>.,.<.<.h d.(.n.s.b.l.;.O 8.                    1.v +.$X@XA I T : 9.                        ",
"    ).j = 4 O Q <.4.9.S.4.h 1 b V G m x 1.r.d.h.s.f.h.b.5.+ 9.                    D.: ..#XwXo.Z ..x ;.                          ",
"    U.# 4 . C.uXH m B m C .X@X#X,X,X@Xb t.l.f.j.h.l.b._ a W.                      ,.1 +XwX+.Z ..> 1.).                          ",
"    >.+ 4 . P.uXm J H H } .XoX+XOXoX+.C 1.h.g.h.z.u.i <.).                        ` v #X@XZ I : 3.'.                            ",
"  S.+ 3 ; O l F.V.V.:.l g g t b b b B H x u.M.c.;.k U.                          W.u I @XK P : 4.                                ",
").h = ; 3 U./.          ^.!.U.S.3.3.<.V.Q d ;.:.S.                              <.x ..J J > 9.                                  ",
"y.O 4 = 3.                                /.W.                                U.N I H I > 8.                                    ",
"D.O 2 s !.                                                                  U.a L .XY 1 4.                                      ",
"^.` O w /.                                                                9.y B V } m 3.                                        ",
"  /.8.D.                                                              ).4.C.uXtXeXL.d [.                                        ",
"                                                                    /.j O P.tXtX].Q U.                                          ",
"                                                                    :.+ 4 . = + . X :.Q.  ).U.U.                                ",
"                                                                  ~.a ; 3 4 4 3 4 3 + s k d 2 @ S.                              ",
"                                                                    k O = + + = + + + = + + = O >.                              ",
"                                                                    U.S.4.,.>.>.>.:.k h d h k 3.^.                              ",
"                                                                                      ).~.Q.                                    ",
"                                                                                                                                ",
"                                                                                                                                ",
"                                                                                                                                ",
"                                                                                                                                "
};
