/* XPM */
static char *f6ce4940bd154b11cc6f63c72e07749393pXoA9aPMtKk9rj[] = {
/* columns rows colors chars-per-pixel */
"64 64 241 2 ",
"   c None",
".  c #000000",
"X  c #020407",
"o  c #00001C",
"O  c #000414",
"+  c #180711",
"@  c #390600",
"#  c #2D0A10",
"$  c #0C220B",
"%  c #342A07",
"&  c #000022",
"*  c #000029",
"=  c #000134",
"-  c #001838",
";  c #131622",
":  c #301D24",
">  c #00353B",
",  c #002C31",
"<  c #352C22",
"1  c #393525",
"2  c #2E2D2C",
"3  c #470F02",
"4  c #4D2508",
"5  c #512A09",
"6  c #4C301A",
"7  c #4D3827",
"8  c #613F28",
"9  c #034935",
"0  c #2A4A36",
"q  c #564A05",
"w  c #68570A",
"e  c #6F6B03",
"r  c #564B28",
"t  c #4D5031",
"y  c #665D26",
"u  c #6B4A30",
"i  c #566230",
"p  c #6D6526",
"a  c #766926",
"s  c #7D742B",
"d  c #707137",
"f  c #003B45",
"g  c #002546",
"h  c #281048",
"j  c #593D45",
"k  c #00524A",
"l  c #1C5747",
"z  c #004A52",
"x  c #005A56",
"c  c #004D4B",
"v  c #33574D",
"b  c #00645B",
"n  c #006C5D",
"m  c #016855",
"M  c #00755D",
"N  c #01795E",
"B  c #077558",
"V  c #0F6A53",
"C  c #296B55",
"Z  c #006A64",
"A  c #007462",
"S  c #037A61",
"D  c #0B7C63",
"F  c #097865",
"G  c #137D63",
"H  c #1A7C63",
"J  c #007F70",
"K  c #247C64",
"L  c #337565",
"P  c #005C61",
"I  c #544E4C",
"U  c #695652",
"Y  c #776C50",
"T  c #6C5A69",
"R  c #6A5468",
"E  c #7C6867",
"W  c #7A6D73",
"Q  c #4D6260",
"!  c #887800",
"~  c #887919",
"^  c #937E1E",
"/  c #867929",
"(  c #867A39",
")  c #847055",
"_  c #8F7874",
"`  c #7D803A",
"'  c #07836B",
"]  c #1B8166",
"[  c #0E8A79",
"{  c #278366",
"}  c #398B77",
"|  c #348B72",
" . c #5B915D",
".. c #688E59",
"X. c #4C8E75",
"o. c #769872",
"O. c #9D9200",
"+. c #928509",
"@. c #A79702",
"#. c #B19A18",
"$. c #AA9912",
"%. c #ACA305",
"&. c #B8A500",
"*. c #BDAA10",
"=. c #8E842A",
"-. c #9B8B25",
";. c #958929",
":. c #9D922C",
">. c #888439",
",. c #9C9237",
"<. c #968D3E",
"1. c #A59A2D",
"2. c #A79828",
"3. c #A59934",
"4. c #A79323",
"5. c #ADA129",
"6. c #B7A829",
"7. c #B7AB34",
"8. c #BEB22E",
"9. c #C4AC00",
"0. c #CBB601",
"q. c #C9B31A",
"w. c #D3BB1B",
"e. c #CAB20E",
"r. c #C8B72D",
"t. c #C6B833",
"y. c #C3AC23",
"u. c #CDC100",
"i. c #DAC702",
"p. c #DCC719",
"a. c #CFC61F",
"s. c #EDD204",
"d. c #F6D901",
"f. c #F6D904",
"g. c #E4C91C",
"h. c #F5D915",
"j. c #F5D91B",
"k. c #FADD1A",
"l. c #F7DA15",
"z. c #E5CC0B",
"x. c #FEE31D",
"c. c #FEE319",
"v. c #FEE204",
"b. c #D7C529",
"n. c #D7C834",
"m. c #D4C633",
"M. c #E3CD26",
"N. c #F7DB25",
"B. c #E7D638",
"V. c #F5DB39",
"C. c #E8D22F",
"Z. c #FEE225",
"A. c #F5E239",
"S. c #938A54",
"D. c #A69856",
"F. c #AD9951",
"G. c #B5AC4A",
"H. c #938870",
"J. c #A59173",
"K. c #8FAB71",
"L. c #AFAD70",
"P. c #9DAB53",
"I. c #C4B754",
"U. c #C7BB6B",
"Y. c #C4BA76",
"T. c #B9C67C",
"R. c #D5C646",
"E. c #CFC255",
"W. c #E8DA47",
"Q. c #F5DD48",
"!. c #F2DC51",
"~. c #FFE949",
"^. c #F8E459",
"/. c #D6CB75",
"(. c #DED27C",
"). c #CAC26F",
"_. c #E2D679",
"`. c #FBE866",
"'. c #FAE979",
"]. c #F8EB7B",
"[. c #8F7485",
"{. c #2F8E82",
"}. c #479783",
"|. c #539C8A",
" X c #5AA18D",
".X c #5EA693",
"XX c #67A997",
"oX c #79B7A8",
"OX c #6EB0A7",
"+X c #688F81",
"@X c #97898E",
"#X c #A48989",
"$X c #AC8D99",
"%X c #AA9597",
"&X c #B7999B",
"*X c #AF9485",
"=X c #ABA78B",
"-X c #B999A4",
";X c #82BEAE",
":X c #BCAAAF",
">X c #848AAA",
",X c #C6A6A9",
"<X c #CBAAB3",
"1X c #D3AEB4",
"2X c #D8B6B8",
"3X c #D1B1B5",
"4X c #E2BCBD",
"5X c #C09CA9",
"6X c #98C8BD",
"7X c #89C2B5",
"8X c #D3D483",
"9X c #E7DE84",
"0X c #E9E589",
"qX c #FAEC84",
"wX c #F5EA89",
"eX c #FDF28A",
"rX c #F9ED95",
"tX c #FDF595",
"yX c #ECE499",
"uX c #F9EFA4",
"iX c #F6EEAC",
"pX c #BBBFCC",
"aX c #DBBBC2",
"sX c #E4BEC3",
"dX c #A2CBC3",
"fX c #EDC5C6",
"gX c #ECC5C9",
"hX c #EFCACB",
"jX c #E6C1C5",
"kX c #F4CBCC",
"lX c #F5CBCC",
"zX c #FCD3D3",
"xX c #F5D7D9",
"cX c #F4CFD0",
"vX c #FFFDCF",
"bX c #F9DEE2",
"nX c #F9E4E6",
"mX c #FFFFE6",
"MX c #FEFFFF",
"NX c #FFFFF3",
"BX c #DBC0C9",
/* pixels */
"            b.y.7.7.t.B.                                                                                                        ",
"        8.:.C m 5.0.&.-.1.B.                                                                                                    ",
"    B.5.,.N ..W.eX].`.N.#.( B.                                                                                                  ",
"    2.6. . .v.k.~.wXtXqX~.9.s B.                                                                                                ",
"  5.e.G.Z n.l.h.f.N.qXtXwX~.@.1.                                                                                                ",
"n.-.M.{  .h.h.h.N.j.Q.qXeX].h./ B.                                                                                              ",
"8.y.C.Z P.x.Z.Z.V.V.d.Q.qXrX~.@.t.        W.R.w.n.                                                                              ",
"7.-.5.> e &.&.a.V.h.k.d.V.qX'.9.1.  B.$.S.+X+XL i ,.n.                                                                          ",
"m.o . _ #X[.@XT ~ h.l.j.d.j.~.q.6.b.y Z OX7X6X6X}.c t B.                                                                        ",
"  t.w &XzXhX3XlXR i.N.h.j.j.f.w.r 9 } oX6XdX6X6XOX| ..:.                                                                        ",
"    $.h fX4X@XjXY s.d.k.j.j.N.^ > XX7XoXXXXXXX| o.wXwX>.                                                                        ",
"    @.-X2XfXcX3XO.Y.*Xd.k.N.#., |.OX}.D A B m K.eXwXS.% m.                                                                      ",
"    7.[.1XlXnX<Xe :XaXz.Z.#.> { } S N S H B o.tX(.0 5X5X( u.p.u.u.i.                                                            ",
"  Y.H.7 %X2X2X@XH.H.L.i.( c D D N D D D N ' 0XwXt <XlXzX1X_ *X*X*XJ.D.$.0.i.                                                    ",
"n.=XL.H.%X@X%X1X_ o./ S.8X{ N D D N N H n K.tXD.$XzXsXgXhXxXbXbXxXxXsX<X&XJ.D.3.%.b.                                            ",
"  a.=XW Q :XkXlX@X,X-XU.wXM D D N D N H M 9XeXY sXlXgXlXbXnXnXnXnXbXxXcXcXkXgXaX-XY b.                                          ",
"  M.=XL.S.&XhX%X%XxX,XU.wXN D S S S D N { 0X_._ lXgXfXgXcXcXkXkXlXfXfXhXfXhXhXhXzX_ %.                                          ",
"  E.>XE.m.>X%XQ BXnX:XU.0XN D F N S D A X.eX(.U lXfXfXlXfXfXfXfXfXfXhX<XfXfXfXgXsXI q.                                          ",
"    ).=X=XH.E /.Y 3X3X).wXA F B S N D D N T.9X2 1XzXlXlXlXhXlXlXlXzX&X,XlXhXxXcX2X$ m.                                          ",
"        B.+.N T.].D.R L.0XM G N S S D D N m | 0 2 _ ,X3X4XsXsXsX4X,XE fXhXxXnXcX#Xw B.                                          ",
"        6.x ] m K.0X_.(.9XN H S D S S S D { S v L 9 . . t r q w ! e H.lXhXnXbX3XT D.                                            ",
"        ` A } }.' S =XeX0XN G S S S S N S N L v D H L - @._.iXiXvX8.$XzXbXnXjX#X$X&.                                            ",
"      n.i | X.} }.] m L o.B ' N S S S D A ' C v S D F B X (.MXMXNX@.,XxXnXxX3X2XJ.i.                                            ",
"      n.i [ |.Q }.| B M M V 9 ' S S S S D | l S N D A K z e iXMXmXO.<XxXxXhXxX-XO.                                              ",
"        =.Z ' z b }  XA M ' l 0 V D S G | F N D S S D S C O %.mXmXO.<XlXcXcXsXY p.                                              ",
"        m.i 8X8Xt b .XoX}.' M m m N S | D S D N S S S ] l f . ).vX;.sXgXsXlXW &.                                                ",
"          6.L.(.Y . V  XoXoXXXX.} { D S A S S S S ] { A b 8XS.X %.( 1XzXkX[.@.                                                  ",
"            ! [.2XE . l S X.XX X X{.F F S S S S { B b X.9XY.( w.4., v _ T @.                                                    ",
"            %.,XzX4X1 X 2 , > 9 c B { D D N H S n S T.9XD.+.j.x.p.c {.{.e                                                       ",
"            u.&XlXkX3XI + : + r q $ z N { G A { L.8XU.( 0.Z.N.x.! - |.L r n.                                                    ",
"          B.6.U E U E U O < * -.0X/.O.% - b K.).L.<.9.h.N.f.i.@.#X,XH.I ^ 3.                                                    ",
"        8.p # @ @ @ @ @ 6 1 = ! vXMXmXyX%.% U s &.w.y.r.*.) #X2XkXlXnX$X&.3.m.                                                  ",
"    V.1.o 3 4 6 : 6 < 6 6 5 : q _.NXMXMXmX0X! 1 / -.M.s.) sXlXlXfXfXnX$X9.r.6.                                                  ",
"  V.-.. 5 6 4 4 5 4 4 5 6 5 3 @ % /.NXMXNXyX~ a M.k.N.9.-XhXjXfXfXkXgXU d.6.t.                                                  ",
"  5.& ,X#X. 6 5 4 6 8 4 3 3 U u o +.mXvX7.q 9.k.k.j.d.D.5X_ 1X4X3X4XH.i.N.;.                                                    ",
"  +.,X2X&X$X. 8 8 u 3 4 Y #X_ # % '.rXe ! B.`.qXV.l.z.J.J.J.<X4X,X3X) c.-.3.                                                    ",
"  Y.sX,X2X%X&X+ u 4 ) [.J.) X 6 M.R.q *.'.rXuXrXN.j.s.J.F.S.[.$X[.&X_ e & I.                                                    ",
"  G.<XzX#X4X*XE 6 8 ) j X % ,.V.6.5 B.].uXuXuXqXf.N.f.) F.i.&.0.i.#.2 -.B.( m.                                                  ",
"    7.5XzX3X,X,X$ r w ~ 3.m.~.3.e V.qXwXrXuX].V.l.l.k.e.p.c.x.j.5.a 0.k.x.g.=.V.                                                ",
"      t.,XjXaXF.M.n.C.      / ! V.qXrXeX'.^.j.l.j.l.l.Z.c.g.2.r -.h.^.'.!.v.6.1.                                                ",
"        a.F.0.            1.~ Z.qXqX`.Q.d.d.j.l.c.k.g.y.-.o & : j.k.!.qXrX`.d.;.n.                                              ",
"                        8./ l.Q.Q.l.v.f.k.x.k.g.y.-.=.;.m.;.o & 4.N.d.l.'.rX~.9.3.                                              ",
"                        ;.y / w w a ^ #.w.#.-.=.:.7.      A.:.& < g.N.f.N.qX].d.=.n.                                            ",
"                        =.f b n A b c f * 1.n.              A.:.o a k.N.s.N.qX~.&.:.                              m.1.5.n.      ",
"                        6.= { H N XXoXX.k /                     5.& -.c.N.d.V.~.s.p :.1.:.;.-.-.1.r.B.          6.; o & 1.      ",
"                          -.g { N } oXoX| = r.                    8.& -.Z.k.h.f.N.j.w.^ g x Z n k > p 2.7.6.4.1.Y o 1 & p B.    ",
"                          B.;.- { B }.7X.X, -.                      m.y ~ k.x.j.h.j.x.q.x XX7X;XoXOX} Z x b x A wXS.. < ; t.    ",
"                            A.4.= G B XXoXk /                         B.:.y w.x.k.j.k.;.b X.|. X X X{.' S A A b 9XU.. 7 o :.    ",
"                                5.= G S XX{ 6 b.                          r./ ;.w.x.q.c A b k k k 9 t i ` >.<.<.G.d o ; < o r.  ",
"                                  6.- B S { c 3.                              7.=.-.y d >.,.1.7.r.m.b.B.          M.8.1 ; & p B.",
"                                    6.- H S ] v t.                                n.n.                                5.& 1 o t.",
"                                      5.- ] | J t m.                                                                  n.7 < o t.",
"                                        4.x ' m b 0 *.                                                                n.t o / C.",
"                                        W.d K.0X0XqXS.1.W.                                                              6.5.n.  ",
"                                          r.Y /.9X_.L.o a n.                                                                    ",
"                                r.r.W.Q.n.=.O . o o X 6 o =.                                                                    ",
"                              7.& < y s r o 1 1 < 1 7 < ; y C.                                                                  ",
"                              1.& & & & & o o o o o o & o s                                                                     ",
"                              B.1.s p y p s =.,.,.3.3.1.5.t.                                                                    ",
"                                    B.B.W.^.wXuXuX                                                                              ",
"                                                                                                                                ",
"                                                                                                                                ",
"                                                                                                                                ",
"                                                                                                                                "
};
