/* XPM */
static char *_3ba8e688ce446ecf49e18ddc3dad329ToL9WVKWBCKa9qxI[] = {
/* columns rows colors chars-per-pixel */
"64 64 226 2 ",
"   c None",
".  c #3F3F3F",
"X  c #663629",
"o  c #764539",
"O  c #61483A",
"+  c #523A4C",
"@  c #324678",
"#  c #4C4C4C",
"$  c #454545",
"%  c #5A4B4B",
"&  c #565757",
"*  c #584B5C",
"=  c #654945",
"-  c #67554C",
";  c #7A5546",
":  c #6C5A55",
">  c #745853",
",  c #704E58",
"<  c #78645A",
"1  c #61605F",
"2  c #57586A",
"3  c #485778",
"4  c #434F6A",
"5  c #6A5568",
"6  c #6C5872",
"7  c #636363",
"8  c #6A6869",
"9  c #776B66",
"0  c #66657A",
"q  c #747474",
"w  c #7B7B7B",
"e  c #787877",
"r  c #766F72",
"t  c #903821",
"y  c #924734",
"u  c #8D4A35",
"i  c #A8472A",
"p  c #B74A29",
"a  c #BC522E",
"s  c #B85635",
"d  c #A84E36",
"f  c #F3541F",
"g  c #C84625",
"h  c #DD4D23",
"j  c #D54A24",
"k  c #D95328",
"l  c #CE5930",
"z  c #E34D24",
"x  c #E94F22",
"c  c #EC5322",
"v  c #EB5B2A",
"b  c #E55728",
"n  c #F35421",
"m  c #F35B29",
"M  c #EC6637",
"N  c #F46D3D",
"B  c #CE542C",
"V  c #8B4B49",
"C  c #8A584A",
"Z  c #935447",
"A  c #886758",
"S  c #956B5A",
"D  c #8D634B",
"F  c #A4624E",
"G  c #A6745A",
"H  c #B57B5C",
"J  c #B1684D",
"K  c #876D66",
"L  c #88746B",
"P  c #977464",
"I  c #877C78",
"U  c #937974",
"Y  c #826D71",
"T  c #A37A65",
"R  c #AC7C65",
"E  c #B47E64",
"W  c #A4746C",
"Q  c #835E69",
"!  c #C57759",
"~  c #D87A55",
"^  c #CF6E4B",
"/  c #F5794A",
"(  c #E47E55",
")  c #EC7549",
"_  c #CD7F63",
"`  c #7F807F",
"'  c #BE805D",
"]  c #81807F",
"[  c #998379",
"{  c #AC826D",
"}  c #B8856A",
"|  c #A2847B",
" . c #A88779",
".. c #B78A76",
"X. c #D1845F",
"o. c #EB8157",
"O. c #F48357",
"+. c #F58458",
"@. c #F88558",
"#. c #C28562",
"$. c #CC8B65",
"%. c #C78A6A",
"&. c #D88967",
"*. c #D6946D",
"=. c #CB967E",
"-. c #C7927B",
";. c #DB9A75",
":. c #DE9D79",
">. c #D59776",
",. c #C68F79",
"<. c #E19F79",
"1. c #E08865",
"2. c #E3A17C",
"3. c #3E588F",
"4. c #274A98",
"5. c #355493",
"6. c #324E91",
"7. c #3E639B",
"8. c #2E53A6",
"9. c #355AA5",
"0. c #294EA0",
"q. c #3B67AA",
"w. c #3B6BB3",
"e. c #3966B2",
"r. c #415B84",
"t. c #465988",
"y. c #4F5D8F",
"u. c #4A6595",
"i. c #556A97",
"p. c #5B6D8F",
"a. c #777988",
"s. c #677497",
"d. c #6A708D",
"f. c #4669AA",
"g. c #4A76B8",
"h. c #577CB4",
"j. c #537FC0",
"k. c #877C85",
"l. c #997E87",
"z. c #7F8388",
"x. c #7B8494",
"c. c #798CA8",
"v. c #6D8BB6",
"b. c #838382",
"n. c #8C8B8A",
"m. c #8A8687",
"M. c #9C8A85",
"N. c #93918F",
"B. c #949594",
"V. c #9C9C9A",
"C. c #999597",
"Z. c #8A9098",
"A. c #A78B82",
"S. c #BB9687",
"D. c #A59993",
"F. c #B79D95",
"G. c #A8A19E",
"H. c #B2A39C",
"J. c #8795A9",
"K. c #A29FA1",
"L. c #A4A3A2",
"P. c #ACACAB",
"I. c #A9A8A7",
"U. c #B6ADA9",
"Y. c #B8B2AE",
"T. c #B4B4B2",
"R. c #BCBCBB",
"E. c #BAB8B6",
"W. c #ADB0B7",
"Q. c #9AA1A9",
"!. c #C39583",
"~. c #CC9984",
"^. c #CB9C89",
"/. c #D49C84",
"(. c #DA9E83",
"). c #D19E89",
"_. c #CA9E91",
"`. c #CEA18E",
"'. c #DCA086",
"]. c #DCA38B",
"[. c #D4A38E",
"{. c #C5A698",
"}. c #D9A692",
"|. c #E5A383",
" X c #E5A58B",
".X c #EDA98B",
"XX c #E9A687",
"oX c #F1AC8E",
"OX c #E7AD95",
"+X c #F5AE92",
"@X c #F4B195",
"#X c #F8B093",
"$X c #C5ADA4",
"%X c #CAB5AA",
"&X c #C6BAB4",
"*X c #C2BEBB",
"=X c #D2B7B4",
"-X c #EBB9A3",
";X c #F3B9A1",
":X c #C6C2BE",
">X c #D3C4BC",
",X c #C4C4C3",
"<X c #CBCCCB",
"1X c #C9C8C7",
"2X c #D3CDC9",
"3X c #D2D1CE",
"4X c #DBD2CD",
"5X c #CED0D3",
"6X c #D3D4D3",
"7X c #DCDDDC",
"8X c #D8D9D8",
"9X c #CFD0CE",
"0X c #E0DFDC",
"qX c #DFE2DD",
"wX c #E2E2DE",
"eX c #DEDFE0",
"rX c #DCE1E1",
"tX c #E3E5E3",
"yX c #E6E9E5",
"uX c #EAE9E5",
"iX c #EEEDE9",
"pX c #E6E8E7",
"aX c #F0EFEB",
"sX c #F1F0ED",
"dX c #F8F8F7",
"fX c #ECF1F3",
/* pixels */
"                                                                                                                                ",
"                                                                                                                                ",
"                                                                                                                                ",
"                                                                          8X5X7X                                                ",
"                                                        &XK.Q.Q.<X  uX=XP.J.J.x.I.                                              ",
"                                                    8XW V d.v.0 V U ~ ) &.D.      V.                                            ",
"                                                  6XW 6 f.y.w.u.f.5 y ( @.1.H.      P.                                          ",
"                                                  A.6 f.f.u.w.u.f.f.5 ^ @.@.&.L.    7 6X                                        ",
"                                                1XQ f.w.q.3 3.3 f.w.f.Z ( @.+.!.      P.                                        ",
"                                              2XF y.q.r.r.3 r.4 3.r.u.5 ( @.@.&.D.    B.                                        ",
"                                            1X! Z t.4 4 r.3 u.r.t.3 4 3 ^ @.@.( A.    x.                                        ",
"                                        4X[.^ M F 7 = ; = = % % > C O 5 ~ @.@.@.%.i.4.x.                                        ",
"                                    3X,.^ N O.@.! : P E } %.K ,.E H ; 9 ( +.+.+.1.d.4.a.dX                                      ",
"                                pXH.J M / @.@.+.+.A A % I A.K A.8 = - A o.+.+.+.( d.4.% m.<X                                    ",
"                              6XJ.a.K ! O.+.+.+.@.G  .: ,X<XK.5XC.; P F @.+.+.+.@.k.@ G E P *X                                  ",
"                            9Xx.v.j.q.d.R ( +.+.@.J < 9 pXdXT.dX,X< - s @.+.+.+.@.U * %.|.|.S.rX                                ",
"                          6Xa.v.j.w.w.w.i. .o.O.@.~ A P D.U.n.U.M.S o B ( O.O.@.@.D S >.oX#XOX*X                                ",
"                          x.v.j.w.w.w.w.w.s.} o.@.o.J G /.,.P /._ s i h a ( @./ l u H #.oX#X#X$XpX                              ",
"                        P.8 Z.n.x.h.f.w.e.8.s.%./ +.( G G R A S u p b x h b v i u %.$.H |.+X XC.W.                              ",
"                        L s ~ o._ R I s.9.8.9.k.1.@.+.+.~ p i i k c f f f j t   O } ;.<.<./.s.g.v.7X                            ",
"                      rXC v / N N N ) H Y t.8.5.W +.+.+.@.m n n n m k b x t       ; #.;.*.r 9.w.h.c.1X                          ",
"                      rXZ f f n f f f m M J 6 5.i.! +.~ +.m n m v l k f j O           D S 6.8.9.s.M.E.                          ",
"                      fXK g x z h h z z x n k C 6.6 ( ( / m n v a p v f i e E.<X            @ p. X#X$X7X                        ",
"                        <XP y g j h z z z z n n a + F / ) m b s p a b i M.1X6X9X<XrX        W (.#X#X+X%X7X                      ",
"                            <XA.p x n n n f f n n z t a v b s h B p y ] :XiXsXsXuX<XeX    pX_.+X+X+X#XOX$X4X                    ",
"                              <Xs n z p V , , , V d ^ d l g z M j X 8 I.>XiXaXaXsXuX<XtX    F.+X:.XXoX@X'.).8X                  ",
"                              $Xg V 3 5.u.i.s.s.y.t.t.* p v m z g o ] Y.:XyXiXaXaXsXeX1X  7XF./.T %.} .XOX].2X                  ",
"                              P.0 t.a.A.).OXOX.X X/.l.3 u k h g y < N.P.:XqXaXaXiXiXsX1X  D.!.~.      ~.-X`.&X                  ",
"                              W.5 ..>.XXoX@X@X#X+X#X.X_ X i y > e ] B.I.R.6XaXaXaXaXsX:X6X  >X>X    U /.]...Y.                  ",
"                              tXI T G G %..X+X+X+X+XoX>., r q e 1 8 V.V.T.1XyXaXaXaXtX,XP.        &X=.'. .U.tX                  ",
"                                <XL #.*.*.%.XX+X+X+X+X~.- # # $   . e B.G.R.3XyXaXuX8XuXP.7X      1X%X&X1X                      ",
"                                  V.: ;.:.>.:.XX+X+X.X_ .             b.n.T.*X2XaXuX,X*XP.E.                                    ",
"                                  G.] { 2.:.2.XX@X.X=.G                 R.V.P.:X8X3XT.Y.P.L.                                    ",
"                                R.n.E.L *.2.|.@X@X@XOX[                   rXI.V.P.P.:XyXwXP.<X                                  ",
"                              E.N.P.G.B.T } } @XoX@X@X@X[                     R.N.V.<XsXsXR.n.R.                                ",
"                            1Xb.I.L.8 N.[ } } XXoXoX+X@X].O                     ,Xz.E.R.B.T.9XV.1X                              ",
"                            C.7XT.b.` P.[ $.;.2.;.;.2.|.>.D                       L.B.G.w G.iX3XR.                              ",
"                            V.dXqXG.` I.9 %.;.2.'.{ G #.$.D                       R.] T.B.I.uXR.1X                              ",
"                            I.iXyXyX:XB.9 ' >.:..X+X>.{ } D                       <Xb.L.B.L.1X<XeX                              ",
"                            T.yXyXiXqXN.I.H *.;.2.+X#X#XOXA                         T.w P.1XwXtXeX                              ",
"                            1XwXuXqXV.,XfXA.#.$.*..X#X#X;XL                           E.<XuXuX8XtX                              ",
"                            3XtXqXY.6X    1XT $.$.<.#XoX-XU                             ,X7XuX<X                                ",
"                          6XR.aX,X6X        H.H #.E U a.s.s.                            qX9XyX1X                                ",
"                        yXB.7 T.T.tX        qXL 4 6.0.e.w.j.c.                          qX9XqXR.tX                              ",
"                      9Xb.# # # e           aXs.4.8.9.e.w.f.c.                          9XV.e 1 P.                              ",
"                  ,XB.z.7 # # $ B.            W.6.9.8.9.w.e.v.1X                        R.# # 8 w L.8X                          ",
"                yXb.q q & # # B.8X            yXy.0.4.y.s.s.s.Z.7X                      R.# # & q q b.P.qX                      ",
"                  R.n.b.8 w T.                qXp.5 T /..XoX X[ L.uX                    6Xn.1 $ # 7 e 8 V.                      ",
"                      pXpX                    yX| *.2..X#XoX@XoX`.E.                        6Xn.7 7 z.n.P.                      ",
"                                              <X{ 2.2.2.oX.XoXoX.X$X                            7X8XqXrX                        ",
"                                              P.G ;.2.:.|.oX@XoX(.{.iX                                                          ",
"                                            3X .} ' :.:.2..X#X X..~.*X                                                          ",
"                                          yX$X(.XX-..X|.2..XoX=.E |.D.yX                                                        ",
"                                          =X/.(..X=. X X`.=.=.S.M.2.S.U.>X                                                      ",
"                                      rX%X'....X ...@X`.E.`.@X`.1X_.}.).%X                                                      ",
"                                      Y.S.{ ~.[.T OX@X%X&X:.@X[.2XtX4X4XtX                                                      ",
"                                    iXD. .!.'.} =.-./.1X&X} { !.2X                                                              ",
"                                      H.!._.,. . XXX{.yX&XXX.X`.4X                                                              ",
"                                      D.T | M.=XH.).4XiX{.-X}.(.:X                                                              ",
"                                        ,XY.^.S.!.{.yX2X_.=X$XS.%X                                                              ",
"                                          Y.G %...E.  &X^.'.-.-.U.                                                              ",
"                                          yXI.N.T.    <XP } } [ 4X                                                              ",
"                                                        <XD.V.<X                                                                ",
"                                                                                                                                "
};
