/* XPM */
static char *result[] = {
/* columns rows colors chars-per-pixel */
"64 64 237 2 ",
"   c #050706",
".  c #060807",
"X  c #060908",
"o  c #0A0909",
"O  c #0B0707",
"+  c #140A0A",
"@  c #1C0B0B",
"#  c #130708",
"$  c #191615",
"%  c #14120D",
"&  c #240C0C",
"*  c #2A0D0D",
"=  c #340D0D",
"-  c #3B0D0D",
";  c #370E10",
":  c #2B1918",
">  c #371515",
",  c #32140F",
"<  c #35241E",
"1  c #302A17",
"2  c #292525",
"3  c #392924",
"4  c #39332A",
"5  c #343534",
"6  c #460E0E",
"7  c #4B0F10",
"8  c #580F11",
"9  c #441213",
"0  c #4A1212",
"q  c #481B17",
"w  c #531213",
"e  c #5B1314",
"r  c #591818",
"t  c #4F0F0F",
"y  c #631315",
"u  c #6B1416",
"i  c #6C1519",
"p  c #67181A",
"a  c #731416",
"s  c #7B1416",
"d  c #741619",
"f  c #7C161A",
"g  c #731B1C",
"h  c #7B1A1C",
"j  c #452719",
"k  c #523115",
"l  c #68251A",
"z  c #77261A",
"x  c #673818",
"c  c #763B1B",
"v  c #7A1E21",
"b  c #6A1B20",
"n  c #442928",
"m  c #5A2A29",
"M  c #49362C",
"N  c #58392A",
"B  c #453D32",
"V  c #593834",
"C  c #652928",
"Z  c #782728",
"A  c #673928",
"S  c #683837",
"D  c #763736",
"F  c #783324",
"G  c #501E20",
"H  c #514418",
"J  c #705017",
"K  c #71631C",
"L  c #5B483B",
"P  c #524C34",
"I  c #684A2D",
"U  c #69493C",
"Y  c #735131",
"T  c #776530",
"R  c #5A4B45",
"E  c #585651",
"W  c #774944",
"Q  c #6A5544",
"!  c #765747",
"~  c #7A5756",
"^  c #674D49",
"/  c #77644C",
"(  c #7C6C55",
")  c #6F6955",
"_  c #766C68",
"`  c #84171A",
"'  c #8C171B",
"]  c #841A1C",
"[  c #8C181C",
"{  c #821417",
"}  c #931A1D",
"|  c #9C1A1E",
" . c #93171C",
".. c #A21A1F",
"X. c #AB1B1F",
"o. c #842A1B",
"O. c #9C2A1E",
"+. c #8A361C",
"@. c #881D23",
"#. c #951C21",
"$. c #9C1B21",
"%. c #A31B21",
"&. c #AC1C22",
"*. c #B31D23",
"=. c #BC1E24",
"-. c #882626",
";. c #992729",
":. c #863636",
">. c #923630",
",. c #A52527",
"<. c #BA252A",
"1. c #A83537",
"2. c #B8383A",
"3. c #B12F2E",
"4. c #B0381F",
"5. c #C41E26",
"6. c #CA1F27",
"7. c #CC1F28",
"8. c #CB2127",
"9. c #CC2329",
"0. c #C5262B",
"q. c #D1262A",
"w. c #C92C32",
"e. c #D12D31",
"r. c #C93539",
"t. c #D53739",
"y. c #89471B",
"u. c #96471C",
"i. c #98531C",
"p. c #8F5014",
"a. c #96791D",
"s. c #8C6D1A",
"d. c #A8711C",
"f. c #8E4A2E",
"g. c #B75C36",
"h. c #8F7134",
"j. c #A7732E",
"k. c #823F41",
"l. c #BC3D42",
"z. c #D73E41",
"x. c #8A5B4B",
"c. c #92504B",
"v. c #A75657",
"b. c #AC534D",
"n. c #886A55",
"m. c #936B56",
"M. c #86735B",
"N. c #98745A",
"B. c #8B6A4A",
"V. c #A6725D",
"C. c #897B69",
"Z. c #947C63",
"A. c #987B64",
"S. c #867979",
"D. c #A37D63",
"F. c #D8484A",
"G. c #DB5555",
"H. c #CE4D4F",
"J. c #D06E6E",
"K. c #E36565",
"L. c #E67574",
"P. c #E05C5C",
"I. c #978211",
"U. c #A58615",
"Y. c #B69314",
"T. c #99862B",
"R. c #BB8728",
"E. c #AF9230",
"W. c #B8A93D",
"Q. c #C1951A",
"!. c #D6AD19",
"~. c #D9B416",
"^. c #CCAA0F",
"/. c #E3BD14",
"(. c #C28F2B",
"). c #D0AD2E",
"_. c #E3B627",
"`. c #EAC60C",
"'. c #FED608",
"]. c #FAD716",
"[. c #F1CB13",
"{. c #FDDC2A",
"}. c #EFD137",
"|. c #FFE138",
" X c #AC9150",
".X c #9B856A",
"XX c #998B74",
"oX c #908A72",
"OX c #A4886A",
"+X c #A88D72",
"@X c #AC9575",
"#X c #A6967A",
"$X c #B89A7A",
"%X c #B58A6B",
"&X c #B4A27B",
"*X c #9B865C",
"=X c #CFAC49",
"-X c #C79B7B",
";X c #C1A471",
":X c #DDC547",
">X c #EDD747",
",X c #E5D34D",
"<X c #FDE24B",
"1X c #FCE255",
"2X c #FCE567",
"3X c #FEE979",
"4X c #D3C461",
"5X c #9B9798",
"6X c #908B87",
"7X c #A89B8D",
"8X c #BBA686",
"9X c #B2AA8A",
"0X c #B9B8B7",
"qX c #B0AAA8",
"wX c #C6A985",
"eX c #D5B48C",
"rX c #CAB696",
"tX c #D7BA95",
"yX c #CEAF8A",
"uX c #E3BD94",
"iX c #D2BDA1",
"pX c #E9C498",
"aX c #F7CD9E",
"sX c #E9D797",
"dX c #FFEC87",
"fX c #FEEF97",
"gX c #D8C2A4",
"hX c #E9CAA6",
"jX c #F6CEA3",
"kX c #FBD3A8",
"lX c #FADAB9",
"zX c #E6CFB0",
"xX c #F9F0B0",
"cX c #CDCFD0",
"vX c #FCE3C7",
"bX c #E4E5E6",
"nX c None",
/* pixels */
"nXnXnXnXnXnXnXnXnXnXnXnXnXnXnXnXnXnXnXnXnXnXnXnXnXnXnXnXnXnXP P P 1 nXnXnXnXnXnXnXnXnXnXnXnXnXnXnXnXnXnXnXnXnXnXnXnXnXnXnXnXnXnX",
"nXnXnXnXnXnXnXnXnXnXnXnXnXnXnXnXnXnXnXnXnXnXnXnXnXnXnXnXnXT sXxXxX&XnXnXnXnXnXnXnXnXnXnXnXnXnXnXnXnXnXnXnXnXnXnXnXnXnXnXnXnXnXnX",
"nXnXnXnXnXnXnXnXnXnXnXnXnXnXnXnXnXnXnXnXnXnXnXnXnXnXnXnXH T fXfXxX0XP nXnXnXnXnXnXnXnXnXnXnXnXnXnXnXnXnXnXnXnXnXnXnXnXnXnXnXnXnX",
"nXnXnXnXnXnXnXnXnXnXnXnXnXnXnXnXnXnXnXnXnXnXnXnXnXnXnXJ ^.).3XdXfXsX9XoXnXnXnXnXnXnXnXnXnXnXnXnXnXnXnXnXnXnXnXnXnXnXnXnXnXnXnXnX",
"nXnXnXnXnXnXnXnXnXnXnXnXnXnXnXnXnXnXnXnXnXnXnXnXnXnXnXY.'.'.<X2X3XfXxXsXT nXnXnXnXnXnXnXnXnXnXnXnXnXnXnXnXnXnXnXnXnXnXnXnXnXnXnX",
"nXnXnXnXnXnXnXnXnXnXnXnXnXnXnXnXnXnXnXnXnXnXnXnXnXnXJ `.'.'.{.1X2X3X3XfX XnXnXnXnXnXnXnXnXnXnXnXnXnXnXnXnXnXnXnXnXnXnXnXnXnXnXnX",
"nXnXnXnXnXnXnXnXnXnXnXnXnXnXnXnXnXnXnXnXnXnXnXnXnXnXI.'.'.'.].|.<X2X3X3X4XnXnXnXnXnXnXnXnXnXnXnXnXnXnXnXnXnXnXnXnXnXnXnXnXnXnXnX",
"nXnXnXnXnXnXnXnXnXnXnXnXnXnXnXnXnXnXnXnXnXnXnXnXnXnXY.].'.'.].|.<X<X1X2X1XK nXnXnXnXnXnXnXnXnXnXnXnXnXnXnXnXnXnXnXnXnXnXnXnXnXnX",
"nXnXnXnXnXnXnXnXnXnXnXnXnXnXnXnXnXnXnXnXnXnXnXnXnXnXQ.[.'.`.[.[.{.>X<X|.}.s.nXnXnXnXnXnXnXnXnXnXnXnXnXnXnXnXnXnXnXnXnXnXnXnXnXnX",
"nXnXnXnXnXnXnXnXnXnXnXnXnXnXnXnXnXnXnXnXnXnXnXnXnXx (._.`.T.oX@X#XM.W.|._.a.nXnXnXnXnXnXnXnXnXnXnXnXnXnXnXnXnXnXnXnXnXnXnXnXnXnX",
"nXnXnXnXnXnXnXnXnXnXnXnXnXnXnXnXnXnXnXnXnXnXnXnXnXk R.).~.C.cXbXcX5XW.[._.a.nXnXnXnXnXnXnXnXnXnXnXnXnXnXnXnXnXnXnXnXnXnXnXnXnXnX",
"nXnXnXnXnXnXnXnXnXnXnXnXnXnXnXnXnXnXnXnXnXnXnXnXnXk U.E.T.5X~ ~ _ 6X XE.).U.nXnXnXnXnXnXnXnXnXnXnXnXnXnXnXnXnXnXnXnXnXnXnXnXnXnX",
"nXnXnXnXnXnXnXnXnXnXnXnXnXnXnXnXnXnXnXnXnXnXnXnXnXj J F I 6X5XqXqX5X) J f.a.nXnXnXnXnXnXnXnXnXnXnXnXnXnXnXnXnXnXnXnXnXnXnXnXnXnX",
"nXnXnXnXnXnXnXnXnXnXnXnXnXnXnXnXnXnXnXnXnXnXnXnXnX< J H R qX0XqX0X0X_ H K I 2 nXnXnXnXnXnXnXnXnXnXnXnXnXnXnXnXnXnXnXnXnXnXnXnXnX",
"nXnXnXnXnXnXnXnXnXnXnXnXnXnXnXnXnXnXnXnXnXnXnXnXnXj I E 5 5 $ % $ 2 5 E Q J 2 nXnXnXnXnXnXnXnXnXnXnXnXnXnXnXnXnXnXnXnXnXnXnXnXnX",
"nXnXnXnXnXnXnXnXnXnXnXnXnXnXnXnXnXnXnXnXnXnXnXnXnXq B 5 o X X         $ 5 P : nXnXnXnXnXnXnXnXnXnXnXnXnXnXnXnXnXnXnXnXnXnXnXnXnX",
"nXnXnXnXnXnXnXnXnXnXnXnXnXnXnXnXnXnXnXnXnXnXnXnXnXC R 2     O o X X   % E S W n nXnXnXnXnXnXnXnXnXnXnXnXnXnXnXnXnXnXnXnXnXnXnXnX",
"nXnXnXnXnXnXnXnXnXnXnXnXnXnXnXnXnXnXnXnXX nXnXnXm :.n %   X O L 2       $ C :.:.  o 2 2 nXnXnXnXnXnXnXnXnXnXnXnXnXnXnXnXnXnXnXnX",
"nXnXnXnXnXnXnXnXnXnXnXnXnXnXnXnXnX& V c.c.n : $ :.F > o o % 4 @XZ.$     + C 1.3.V W J.J.v.M nXnXnXnXnXnXnXnXnXnXnXnXnXnXnXnXnXnX",
"nXnXnXnXnXnXnXnXnXnXnXnXnXnXnX: S v.L.L.L.J.v.c.r.>.m 2 V Q ^ eX+XM 3 M 3 Z 3.0.k.J.H.L.L.J.D @ nXnXnXnXnXnXnXnXnXnXnXnXnXnXnXnX",
"nXnXnXnXnXnXnXnXnXnXnXnXnXnX> b.K.K.P.z.K.H.1.-.0.-.I ^ n.N.x.^ V m.m.Z.V z &.0.` -.w.G.K.K.K.c.: nXnXnXnXnXnXnXnXnXnXnXnXnXnXnX",
"nXnXnXnXnXnXnXnXnXnXnXnXnXnXZ G.F.G.z.z.F.,.i v <.h x C S D C G m W S D A -.&.9.6. .$.H.P.G.F.F.:.nXnXnXnXnXnXnXnXnXnXnXnXnXnXnX",
"nXnXnXnXnXnXnXnXnXnXnXnXnX; r.t.t.t.9.w.e.#.i #.5.d w 3 ! A.oX0X0XC.x.R q b %.9.=.%.' e.F.t.t.t.2.: $ nXnXnXnXnXnXnXnXnXnXnXnXnX",
"nXnXnXnXnXnXnXnXnXnXnX< 3 l e.e.q.q.7.7.9.i i 9.r.D S n A.m.6XcXbX5Xx.R m S @.,.=.r w 9.q.9.e.e.e.:.:.M nXnXnXnXnXnXnXnXnXnXnXnX",
"nXnXnXnXnXnXnXnXnXnXoXU :.,.9.9.7.7.7.7.5.f *.<.&.v.oXn A.~ 5XcXcXC.m.^ ~ 6X@.#.%.] 0 *.9.7.7.9.q.0.3.b.rXnXnXnXnXnXnXnXnXnXnXnX",
"nXnXnXnXnXnXnXnXnX8XzXf.1.0.9.9.t.H.G.F.0.&.%.*.=.v.6XV C.S _ 7X5X~ M.E ~ S.#.&.=.&.$.=.=.1.l.r.8.5.<.1.zXrXnXnXnXnXnXnXnXnXnXnX",
"nXnXnXnXnXnXnXnX@XkXuX1.9.8.w.1.:.;.;.@.$.} ,.%.` -.^ m W m k.V.m.S U S S S } &.*.*.} %.{ a v 1.r.0.| -.yXkX@XnXnXnXnXnXnXnXnXnX",
"nXnXnXnXnXnXnXnXuXjXwX3.7.&.d s { { { s ' u *.| d d V G m m c.c.q m V m 9 p [ } &.| p [ ` { { f o.<.'  .! pXuXnXnXnXnXnXnXnXnXnX",
"nXnXnXnXnXnX( 8XjXyX! $.0.' ' ' ' ' ' ` ' f | [ e - E ^ ) R 8XuXm.^ E R ~ Z f i ' s u [ ` ' ' ' '  .{  .m.jXeXoX( L nXnXnXnXnXnX",
"nXnXnXnXnX@XyXwXuXaXwX;.2.#.....} } }  .' u ' ` ; o > C ~ _ ^ 7XC.~ S.V n & 8 t a ' u [ [ }  .}  .| |  .x.kXjXjXkXtX@X( nXnXnXnX",
"nXnXnXM.eXkXlX$Xn.hX-X,.<.%.%.*.%...%.%.} i 0 6 + o y v m S C S S C D D v @ o & 6 $.a ' } | | | $.$.` ` f.pXaXyXgXvXkXaX+XnXnXnX",
"nXnXnXeXaXkXvXlXZ.Z.V.%.5.&.&.*.*.*.&.,.| ] y : 9 f #.` S _ _ 6XS._ ( x.f d -   i %.f O.%.%.%.%.*.[ y s :.pXeXXXlXvXkXjXhXM.nXnX",
"nXnXZ.yXhXjXkXlXOXQ -X[ X.} *.=.=.5.=.*.*.$.@.:., i #.' D @XC.6X_ XXW v w y = * ..' ..&.&.,.X.*.=.q q w C uX$XOXlXkXjXjXiX$XnXnX",
"nXnXD.8XiXlXkXkX$X@X-Xh } a *.=.5.5.6.5.5.$.#.z.C = ` f ' U @X$XR x.;.i > Z y &.=.' *.&.=.5.*.5.&.C T T.I -XuX@XkXkXjXtX9X$X/ nX",
"nX$ n.$XrXzXlXkX-X$X%Xi ] y [ 8.6.5.6.6.5.' ,.F.<.;.v y d *.-.A.V %.' > :.,.;.e.*. .=.<.5.=.0.6.#.2.>.i.F x.-XOXkXaXtXiX8X+XQ nX",
"nXM./ -XyXrXkXkX@XQ B.w e q t ..6.7.6.*.a e 3.z.#.%.<.v w f *.m @...w -.b f r.F.X. .=.6.6.5.5.X.#.9.9.<.#.;.Y $XaXaXhXwX@XD.M nX",
"nX@XQ %X&X-XuXkXaX! % * > E.T u ' |  .y - 6 <.e.5.*.$.v d 0 d ` $.] %. .#.7.7.t.X.| *.=.5.6.6.} *.9.*.$.&.$.4 &XjXaXrXwXOXx.P nX",
"R @X4 m.A.@XrXaXyX/ > D h.E.T.q 7 y 8 8 = e q.9.7.7.5.#.e ' ` y d %.&.=.7.7.5.5.0. .` a | 5.5.{ *.0.f u u c.I M OXpXyX$Xm.M / nX",
"oXwX4 ! V.N.&XtXB.l ,.1.o.@.g 3.d - # O @ %.5.5.7.9.7.7.&.f #.e d $.5.6.6.6.7.*.5.` u a s ` ' y u f 8 - m  X}.K K .XyX%Xx.$ Z..X",
"M.gX/ : V Q B. Xh.Z x I C y d &.6.s O @ d &.] 5.t.t.q.5.*.&.&.f y %.t.t.7.7.7.*.| ' - = t u u t - + * n B.>X'.Y.Y T.m.U < 4 $XoX",
"U gX@XL XXtX*XE.;.+.W.}.).d.z 6  .e - y a 7 s 6.8.7.9.8.*. .i t } w.t.z.e.8.8.X.8 s e o O & - 6 & @ C j.>X'.~.u.@.h./ .XP M.wXXX",
"L rX.XA.uXpXW.i.5.i.~.].|.1Xj.a r & @ @ o & &.7.9.8.8.8.8.5.s 6 [ 0.8.8.8.8.8.5.w = y t + o . X + @.f.}.'.~.u. .u >. XtX$XOXrX.X",
"nX9XXXB.-X&XI.,.%.h J Q.!.[.d.%.>.o X o . = | 5.5.8.6.7.9.,.t * } e.e.8.6.=.*...a * O & @ o X X 0 <.+.[./.u.v 8 s z a.&XD.A.iXnX",
"nX&X#X! N.E.p.%.r 0 y l I d.+.*.9.p nX@ * + t s s ` 5.5.9.e.$.w &.q.8.8.8.| e - * o . . . . . + %.7.;.U.u.p * i Z 9 s.N.m..X8XnX",
"/ .X#XQ x.a.o.o.a.Y > * 8 e u *.9.` nXnX* & o @ * [ 8.8.5.=.` 0 %.8.8.8.6.5...w o + @ . nXnXnXnX*.7.$.@.e * > b h.Y J T ! +X6XnX",
"nX+XrX) I s.{ y.}.=X:.- O * w  ...w nXnXo + o o 6 ' s a ' d & # e ' u  .| a 6 @ o 9 & nXnXnXnXnX%.5.d e & @ e f.=XU.J K M #XXXnX",
"nXZ.wX( 1 i...x /.1XE.] & nX@ t 8 nXnXnXnX. & * # + + = - - 6 t - & + & & O . . o o . nXnXnXnXnXa ` u & + = J =X].U.x H P 8X.XnX",
"nXZ.Z.#XH +.=.[ Y.].2XR.g & nXnX# nXnXnXnXnX. ; & & 0 - e ` %.f ' ` y = # @ + & . nXnXnXnXnXnXnX= 6 * * r f.:X{./.p.l k .X8XQ nX",
"nXM.n.$X/ +.$.$.o.^.|.,X+.1.m nXnXnXnXnXnXnXnX* f @.&.*.=.*.$.f y 0.<.%.' r & & nXnXnXnXnXnXnXnXnXnXnXh O.).].R.y.0 r T #XOX3 nX",
"nXn.M.N.! z d f d c !.~.O.e.1.nXnXnXnXnXnXnXnX. 0 %.5.*.f 6 e y @ w <.7.$.& , * nXnXnXnXnXnXnXnXnXnXb <.O.!.Q.F u @.l T D.L 4 nX",
"nXQ .XU ! y c f.Z 0 c y.*.7.=.nXnXnXnXnXnXnXnXnXo * 9 = w #.*.$.r o > u * - e @ nXnXnXnXnXnXnXnXnXnX;.7.$.J c e &.w.C j < R nXnX",
"nXnXOXL 3 e d.=X2.G - y | 6.&.nXnXnXnXnXnXnXnXnX* 9 * ] w.F.t.5.#.& X X o * * nXnXnXnXnXnXnXnXnXnXnX..5.] 9 7 - ' %.r % P n.nXnX",
"nXnX! n.4 8 J }.(.;.& * a | y nXnXnXnXnXnXnXnXnX+ f *.9.e.<.$.$.$.* X X o @ . nXnXnXnXnXnXnXnXnXnXnXd ' a = @ @ G @.y P A.L nXnX",
"nXnX+ < U l z !.}.g.' nX- 8 = nXnXnXnXnXnXnXnXnXnX- f u } u * & & @ & o o o nXnXnXnXnXnXnXnXnXnXnXnX- e - O 9 Z 1.+.k Q U nXnXnX",
"nXnXnX  $ s.k K _._.,.* nXnXnXnXnXnXnXnXnXnXnXnXnXnXo ; #.] e w + o o o . nXnXnXnXnXnXnXnXnXnXnXnXnXnX@ n D f 4. X).K $ nXnXnXnX",
"nXnXnXnXnXT.I > U._.4.;.C nXnXnXnXnXnXnXnXnXnXnXnXnXnXnX@ # O + X X . . nXnXnXnXnXnXnXnXnXnXnXnXnXnXnXw w.w.Z ).|.[.k nXnXnXnXnX",
"nXnXnXnXnXE. Xk.U d.O.8.w.z nXnXnXnXnXnXnXnXnXnXnXnXnXnXnXnXnXnXnXnXnXnXnXnXnXnXnXnXnXnXnXnXnXnXnXnXnXy 5.5.p.[.`.U.1 nXnXnXnXnX",
"nXnXnXnXnXU.:Xg.m G d ....y nXnXnXnXnXnXnXnXnXnXnXnXnXnXnXnXnXnXnXnXnXnXnXnXnXnXnXnXnXnXnXnXnXnXnXnXnXw | =.+.Y.J q nXnXnXnXnXnX",
"nXnXnXnXnXH _.).-.: e s a - nXnXnXnXnXnXnXnXnXnXnXnXnXnXnXnXnXnXnXnXnXnXnXnXnXnXnXnXnXnXnXnXnXnXnXnXnXnXu s y q i c nXnXnXnXnXnX",
"nXnXnXnXnXnXs.!.o.-.9 - 6 nXnXnXnXnXnXnXnXnXnXnXnXnXnXnXnXnXnXnXnXnXnXnXnXnXnXnXnXnXnXnXnXnXnXnXnXnXnXnX* t 6 d d.a.nXnXnXnXnXnX",
"nXnXnXnXnXnXj y.} <.h nXnXnXnXnXnXnXnXnXnXnXnXnXnXnXnXnXnXnXnXnXnXnXnXnXnXnXnXnXnXnXnXnXnXnXnXnXnXnXnXnXt [ f i.^.J nXnXnXnXnXnX",
"nXnXnXnXnXnXnX9 [ ..y nXnXnXnXnXnXnXnXnXnXnXnXnXnXnXnXnXnXnXnXnXnXnXnXnXnXnXnXnXnXnXnXnXnXnXnXnXnXnXnXnXnX` #.s.H nXnXnXnXnXnXnX",
"nXnXnXnXnXnXnXnX- u 6 nXnXnXnXnXnXnXnXnXnXnXnXnXnXnXnXnXnXnXnXnXnXnXnXnXnXnXnXnXnXnXnXnXnXnXnXnXnXnXnXnXnX# = 1 nXnXnXnXnXnXnXnX",
"nXnXnXnXnXnXnXnXnX@ nXnXnXnXnXnXnXnXnXnXnXnXnXnXnXnXnXnXnXnXnXnXnXnXnXnXnXnXnXnXnXnXnXnXnXnXnXnXnXnXnXnXnXnXnXnXnXnXnXnXnXnXnXnX"
};
